<svg width="324" height="702" viewBox="0 0 324 702" fill="none" xmlns="http://www.w3.org/2000/svg">
<g clip-path="url(#clip0_383_8555)">
<rect width="324" height="701.169" fill="white"/>
<g clip-path="url(#clip1_383_8555)">
<rect width="323.9" height="701" transform="translate(-0.113281)" fill="white"/>
<rect x="15.5352" y="632.15" width="292.605" height="37.5536" rx="18.7768" fill="#333333"/>
<path d="M144.571 654.862L143.895 653.11H140.189L139.501 654.862H137.949L141.441 646.1H142.668L146.16 654.862H144.571ZM140.728 651.708H143.344L142.042 648.353L140.728 651.708ZM151.359 646.1H152.748V654.862H151.359V654.036C151.033 654.587 150.22 654.987 149.406 654.987C147.754 654.987 146.464 653.585 146.464 651.795C146.464 650.018 147.754 648.616 149.406 648.616C150.22 648.616 151.033 649.016 151.359 649.567V646.1ZM149.694 653.661C150.382 653.661 151.058 653.273 151.359 652.747V650.869C151.058 650.331 150.395 649.943 149.694 649.943C148.642 649.943 147.841 650.731 147.841 651.795C147.841 652.859 148.642 653.661 149.694 653.661ZM158.693 646.1H160.083V654.862H158.693V654.036C158.368 654.587 157.554 654.987 156.741 654.987C155.088 654.987 153.799 653.585 153.799 651.795C153.799 650.018 155.088 648.616 156.741 648.616C157.554 648.616 158.368 649.016 158.693 649.567V646.1ZM157.028 653.661C157.717 653.661 158.393 653.273 158.693 652.747V650.869C158.393 650.331 157.729 649.943 157.028 649.943C155.977 649.943 155.176 650.731 155.176 651.795C155.176 652.859 155.977 653.661 157.028 653.661ZM168.551 651.282V649.88H172.106V653.335C171.317 654.349 170.04 654.975 168.488 654.975C165.984 654.975 164.069 652.985 164.069 650.444C164.069 647.902 165.972 645.975 168.475 645.975C170.203 645.975 171.705 646.863 172.168 648.153L170.866 648.791C170.478 647.952 169.577 647.402 168.475 647.402C166.786 647.402 165.584 648.653 165.584 650.444C165.584 652.259 166.811 653.56 168.488 653.56C169.402 653.56 170.115 653.298 170.641 652.847V651.282H168.551ZM174.274 645.9C174.762 645.9 175.175 646.313 175.175 646.788C175.175 647.289 174.762 647.69 174.274 647.69C173.786 647.69 173.385 647.289 173.385 646.788C173.385 646.313 173.786 645.9 174.274 645.9ZM173.573 648.741H174.963V654.862H173.573V648.741ZM178.399 648.253V648.741H180.001V650.068H178.399V654.862H177.009V650.068H175.833V648.741H177.009V648.19C177.009 646.676 177.961 645.824 179.313 645.824C179.576 645.824 179.864 645.874 180.064 645.962L179.989 647.201C179.876 647.164 179.663 647.126 179.513 647.126C178.9 647.126 178.399 647.552 178.399 648.253ZM184.536 653.573L184.611 654.8C184.411 654.9 184.123 654.95 183.86 654.95C182.508 654.95 181.557 654.086 181.557 652.572V650.068H180.38V648.741H181.557V647.101H182.946V648.741H184.549V650.068H182.946V652.509C182.946 653.222 183.447 653.648 184.061 653.648C184.211 653.648 184.411 653.611 184.536 653.573Z" fill="white"/>
<g clip-path="url(#clip2_383_8555)">
<path fill-rule="evenodd" clip-rule="evenodd" d="M263.544 15.6462H264.326C264.759 15.6462 265.109 15.9965 265.109 16.4286V21.1228C265.109 21.5549 264.759 21.9052 264.326 21.9052H263.544C263.112 21.9052 262.762 21.5549 262.762 21.1228V16.4286C262.762 15.9965 263.112 15.6462 263.544 15.6462Z" fill="#D1D1D6"/>
<path fill-rule="evenodd" clip-rule="evenodd" d="M260.025 17.2112H260.807C261.239 17.2112 261.589 17.5615 261.589 17.9935V21.123C261.589 21.5551 261.239 21.9054 260.807 21.9054H260.025C259.592 21.9054 259.242 21.5551 259.242 21.123V17.9935C259.242 17.5615 259.592 17.2112 260.025 17.2112Z" fill="#D1D1D6"/>
<path fill-rule="evenodd" clip-rule="evenodd" d="M256.501 18.3845H257.283C257.716 18.3845 258.066 18.7348 258.066 19.1669V21.1228C258.066 21.5549 257.716 21.9052 257.283 21.9052H256.501C256.069 21.9052 255.719 21.5549 255.719 21.1228V19.1669C255.719 18.7348 256.069 18.3845 256.501 18.3845Z" fill="#D1D1D6"/>
<path fill-rule="evenodd" clip-rule="evenodd" d="M267.064 14.0815H267.846C268.278 14.0815 268.628 14.4318 268.628 14.8639V21.1228C268.628 21.5549 268.278 21.9052 267.846 21.9052H267.064C266.632 21.9052 266.281 21.5549 266.281 21.1228V14.8639C266.281 14.4318 266.632 14.0815 267.064 14.0815Z" fill="#3C3C43" fill-opacity="0.18"/>
<path fill-rule="evenodd" clip-rule="evenodd" d="M263.544 15.6462H264.326C264.759 15.6462 265.109 15.9965 265.109 16.4286V21.1228C265.109 21.5549 264.759 21.9052 264.326 21.9052H263.544C263.112 21.9052 262.762 21.5549 262.762 21.1228V16.4286C262.762 15.9965 263.112 15.6462 263.544 15.6462Z" fill="#333333"/>
<path fill-rule="evenodd" clip-rule="evenodd" d="M260.025 17.2112H260.807C261.239 17.2112 261.589 17.5615 261.589 17.9935V21.123C261.589 21.5551 261.239 21.9054 260.807 21.9054H260.025C259.592 21.9054 259.242 21.5551 259.242 21.123V17.9935C259.242 17.5615 259.592 17.2112 260.025 17.2112Z" fill="#333333"/>
<path fill-rule="evenodd" clip-rule="evenodd" d="M256.501 18.3845H257.283C257.716 18.3845 258.066 18.7348 258.066 19.1669V21.1228C258.066 21.5549 257.716 21.9052 257.283 21.9052H256.501C256.069 21.9052 255.719 21.5549 255.719 21.1228V19.1669C255.719 18.7348 256.069 18.3845 256.501 18.3845Z" fill="#333333"/>
<path d="M279.295 19.5107C279.795 19.5107 280.281 19.6422 280.71 19.8929L280.883 19.9945C281.015 20.0715 281.038 20.2517 280.93 20.3593L279.448 21.837C279.357 21.9278 279.21 21.9278 279.119 21.837L277.646 20.3688C277.539 20.2617 277.561 20.0824 277.692 20.0048L277.863 19.9028C278.296 19.6457 278.788 19.5107 279.295 19.5107Z" fill="#333333"/>
<path d="M279.296 16.7961C280.541 16.7961 281.736 17.209 282.71 17.9737L282.847 18.0817C282.957 18.1679 282.966 18.3302 282.868 18.4287L281.983 19.3109C281.901 19.3925 281.772 19.4019 281.679 19.3329L281.571 19.2527C280.914 18.7641 280.121 18.502 279.296 18.502C278.467 18.502 277.67 18.7674 277.01 19.2616L276.902 19.3425C276.809 19.412 276.679 19.4029 276.597 19.321L275.713 18.4391C275.614 18.3409 275.624 18.179 275.733 18.0926L275.87 17.9845C276.845 17.213 278.046 16.7961 279.296 16.7961Z" fill="#333333"/>
<path d="M279.295 14.0815C281.27 14.0815 283.159 14.7783 284.654 16.0554L284.782 16.1644C284.885 16.2525 284.891 16.4095 284.795 16.5053L283.913 17.3847C283.828 17.4698 283.692 17.4758 283.599 17.3984L283.49 17.3071C282.313 16.3228 280.837 15.7874 279.295 15.7874C277.748 15.7874 276.268 16.3265 275.089 17.3169L274.98 17.4087C274.887 17.4865 274.75 17.4807 274.665 17.3953L273.783 16.5161C273.687 16.4205 273.693 16.2637 273.796 16.1755L273.923 16.0665C275.42 14.7825 277.314 14.0815 279.295 14.0815Z" fill="#333333"/>
<path d="M307.359 16.4287V16.4287C307.791 16.4287 308.142 16.779 308.142 17.2111V18.7758C308.142 19.2079 307.791 19.5582 307.359 19.5582V19.5582V16.4287Z" fill="#3C3C43" fill-opacity="0.6"/>
<path fill-rule="evenodd" clip-rule="evenodd" d="M290.929 13.2993H304.229C305.526 13.2993 306.576 14.3501 306.576 15.6464V20.3406C306.576 21.6369 305.526 22.6877 304.229 22.6877H290.929C289.633 22.6877 288.582 21.6369 288.582 20.3406V15.6464C288.582 14.3501 289.633 13.2993 290.929 13.2993ZM290.929 14.0817C290.065 14.0817 289.364 14.7822 289.364 15.6464V20.3406C289.364 21.2048 290.065 21.9053 290.929 21.9053H304.229C305.094 21.9053 305.794 21.2048 305.794 20.3406V15.6464C305.794 14.7822 305.094 14.0817 304.229 14.0817H290.929Z" fill="#3C3C43" fill-opacity="0.6"/>
<rect x="290.148" y="14.864" width="14.865" height="6.25893" rx="0.782366" fill="#333333"/>
<path d="M29.5138 21.9749C31.6168 21.9749 32.866 20.3303 32.866 17.5454C32.866 16.4968 32.6655 15.6143 32.2815 14.9324C31.7257 13.8723 30.7688 13.2993 29.5597 13.2993C27.7604 13.2993 26.4883 14.5084 26.4883 16.2045C26.4883 17.7975 27.6343 18.955 29.2101 18.955C30.1785 18.955 30.9636 18.5024 31.3532 17.7173H31.3704C31.3704 17.7173 31.3933 17.7173 31.3991 17.7173C31.4105 17.7173 31.4507 17.7173 31.4507 17.7173C31.4507 19.6083 30.7344 20.7371 29.5253 20.7371C28.8148 20.7371 28.2646 20.3475 28.0756 19.7229H26.6029C26.8493 21.081 28.0011 21.9749 29.5138 21.9749ZM29.5654 17.7803C28.6142 17.7803 27.938 17.1042 27.938 16.1587C27.938 15.2361 28.6486 14.5313 29.5711 14.5313C30.4937 14.5313 31.2043 15.2476 31.2043 16.1816C31.2043 17.1042 30.5109 17.7803 29.5654 17.7803Z" fill="#333333"/>
<path d="M35.2844 21.8946C35.8288 21.8946 36.2012 21.505 36.2012 20.9893C36.2012 20.4678 35.8288 20.0839 35.2844 20.0839C34.7458 20.0839 34.3676 20.4678 34.3676 20.9893C34.3676 21.505 34.7458 21.8946 35.2844 21.8946ZM35.2844 17.597C35.8288 17.597 36.2012 17.2131 36.2012 16.6973C36.2012 16.1759 35.8288 15.792 35.2844 15.792C34.7458 15.792 34.3676 16.1759 34.3676 16.6973C34.3676 17.2131 34.7458 17.597 35.2844 17.597Z" fill="#333333"/>
<path d="M41.5649 21.7743H42.9803V20.2329H44.0977V18.9837H42.9803V13.5056H40.8945C39.4333 15.706 38.2701 17.5454 37.5251 18.9149V20.2329H41.5649V21.7743ZM38.8947 18.9321C39.8573 17.236 40.7169 15.8779 41.5076 14.709H41.5879V19.0181H38.8947V18.9321Z" fill="#333333"/>
<path d="M47.2496 21.7743H48.728V13.5056H47.2553L45.095 15.0184V16.4395L47.1521 14.9955H47.2496V21.7743Z" fill="#333333"/>
</g>
<path d="M27.2695 65.718H16.3164" stroke="#333333" stroke-width="1.17355" stroke-linecap="round" stroke-linejoin="round"/>
<path d="M21.793 71.1946L16.3164 65.718L21.793 60.2415" stroke="#333333" stroke-width="1.17355" stroke-linecap="round" stroke-linejoin="round"/>
<path d="M129.686 67.6377V66.2357H133.241V69.6906C132.453 70.7045 131.176 71.3304 129.624 71.3304C127.12 71.3304 125.205 69.3401 125.205 66.799C125.205 64.2578 127.108 62.3301 129.611 62.3301C131.339 62.3301 132.841 63.2189 133.304 64.5082L132.002 65.1466C131.614 64.3079 130.713 63.7571 129.611 63.7571C127.921 63.7571 126.719 65.0089 126.719 66.799C126.719 68.6141 127.946 69.9159 129.624 69.9159C130.537 69.9159 131.251 69.653 131.777 69.2024V67.6377H129.686ZM135.41 62.255C135.898 62.255 136.311 62.6681 136.311 63.1438C136.311 63.6445 135.898 64.045 135.41 64.045C134.922 64.045 134.521 63.6445 134.521 63.1438C134.521 62.6681 134.922 62.255 135.41 62.255ZM134.709 65.0965H136.098V71.2178H134.709V65.0965ZM143.315 65.0965L140.749 71.2178H139.547L136.981 65.0965H138.496L140.148 69.3526L141.788 65.0965H143.315ZM144.908 62.255C145.396 62.255 145.81 62.6681 145.81 63.1438C145.81 63.6445 145.396 64.045 144.908 64.045C144.42 64.045 144.019 63.6445 144.019 63.1438C144.019 62.6681 144.42 62.255 144.908 62.255ZM144.207 65.0965H145.597V71.2178H144.207V65.0965ZM150.335 64.9714C151.862 64.9714 152.838 66.0354 152.838 67.7253V71.2178H151.436V67.9506C151.436 66.9617 150.861 66.3608 149.997 66.3608C149.371 66.3608 148.77 66.6863 148.457 67.2121V71.2178H147.068V65.0965H148.457V65.9227C148.833 65.3344 149.559 64.9714 150.335 64.9714ZM158.886 65.084H160.276V70.9925C160.276 72.6824 158.986 73.7714 157.246 73.7714C156.182 73.7714 155.031 73.3834 154.467 72.7575L155.168 71.7936C155.657 72.2693 156.408 72.5196 157.196 72.5196C158.135 72.5196 158.886 71.8812 158.886 70.9674V70.2789C158.561 70.8047 157.747 71.2053 156.933 71.2053C155.281 71.2053 153.992 69.8283 153.992 68.0758C153.992 66.3358 155.281 64.9714 156.933 64.9714C157.747 64.9714 158.561 65.3594 158.886 65.8977V65.084ZM157.221 69.9034C157.91 69.9034 158.586 69.5279 158.886 69.0146V67.162C158.586 66.6362 157.922 66.2607 157.221 66.2607C156.17 66.2607 155.369 67.0368 155.369 68.0758C155.369 69.1273 156.17 69.9034 157.221 69.9034ZM163.139 62.4553V71.2178H161.749V62.4553H163.139ZM165.311 62.255C165.799 62.255 166.212 62.6681 166.212 63.1438C166.212 63.6445 165.799 64.045 165.311 64.045C164.823 64.045 164.422 63.6445 164.422 63.1438C164.422 62.6681 164.823 62.255 165.311 62.255ZM164.61 65.0965H165.999V71.2178H164.61V65.0965ZM178.182 68.9771C177.732 70.3791 176.179 71.343 174.389 71.343C171.861 71.343 169.983 69.3776 169.983 66.824C169.983 64.2829 171.861 62.3301 174.389 62.3301C176.117 62.3301 177.619 63.2189 178.095 64.5082L176.78 65.1466C176.405 64.3079 175.491 63.7571 174.389 63.7571C172.687 63.7571 171.498 65.059 171.498 66.824C171.498 68.589 172.687 69.9159 174.389 69.9159C175.566 69.9159 176.517 69.3151 176.855 68.3762L178.182 68.9771ZM183.812 65.0965H185.201V71.2178H183.812V70.3916C183.486 70.9424 182.673 71.343 181.859 71.343C180.207 71.343 178.917 69.941 178.917 68.1509C178.917 66.3734 180.207 64.9714 181.859 64.9714C182.673 64.9714 183.486 65.3719 183.812 65.9227V65.0965ZM182.147 70.0161C182.835 70.0161 183.511 69.628 183.812 69.1023V67.2246C183.511 66.6863 182.848 66.2983 182.147 66.2983C181.095 66.2983 180.294 67.0869 180.294 68.1509C180.294 69.2149 181.095 70.0161 182.147 70.0161ZM188.941 71.3555C187.952 71.3555 186.888 71.005 186.287 70.4667L186.838 69.4152C187.313 69.8658 188.215 70.1788 188.903 70.1788C189.517 70.1788 189.917 69.8909 189.917 69.5028C189.917 68.3762 186.512 69.1648 186.512 66.8991C186.512 65.76 187.489 64.9714 188.891 64.9714C189.742 64.9714 190.631 65.2092 191.181 65.7099L190.631 66.7865C190.142 66.3608 189.266 66.1355 188.753 66.1355C188.24 66.1355 187.902 66.3859 187.902 66.7865C187.902 67.8254 191.332 67.187 191.332 69.4528C191.332 70.5543 190.343 71.3555 188.941 71.3555ZM195.724 64.9714C197.264 64.9714 198.228 66.0354 198.228 67.7253V71.2178H196.826V67.9506C196.826 66.9617 196.262 66.3608 195.386 66.3608C194.773 66.3608 194.159 66.6863 193.859 67.2121V71.2178H192.469V62.4553H193.859V65.9227C194.222 65.3344 194.948 64.9714 195.724 64.9714Z" fill="#333333"/>
<rect x="109.469" y="691.227" width="104.837" height="3.91183" rx="1.95592" fill="black"/>
</g>
</g>
<defs>
<clipPath id="clip0_383_8555">
<rect width="324" height="701.169" fill="white"/>
</clipPath>
<clipPath id="clip1_383_8555">
<rect width="323.9" height="701" fill="white" transform="translate(-0.113281)"/>
</clipPath>
<clipPath id="clip2_383_8555">
<rect width="323.9" height="34.4241" fill="white" transform="translate(-0.113281 -0.000976562)"/>
</clipPath>
</defs>
</svg>
