<svg width="254" height="262" viewBox="0 0 254 262" fill="none" xmlns="http://www.w3.org/2000/svg">
<g clip-path="url(#clip0_375_8161)">
<rect width="253.819" height="261.082" transform="translate(0 0.827759)" fill="white"/>
<g filter="url(#filter0_dd_375_8161)">
<rect width="253.819" height="42.9162" transform="translate(0 0.827759)" fill="white"/>
<rect x="112.195" y="8.18463" width="29.4282" height="2.45235" rx="1.22618" fill="#EBEBEB"/>
<path d="M60.1328 26.6534H61.3295L59.0439 33.5298H58.1022L56.4837 28.5565L54.8651 33.5298H53.9136L51.6084 26.6534H52.8346L54.4041 31.6366L56.0226 26.6534H56.9742L58.5633 31.6366L60.1328 26.6534ZM64.5826 28.6349C65.7891 28.6349 66.5445 29.4687 66.5445 30.793V33.5298H65.4458V30.9696C65.4458 30.1946 65.0044 29.7238 64.3177 29.7238C63.8371 29.7238 63.3564 29.9788 63.121 30.3908V33.5298H62.0321V26.6633H63.121V29.3805C63.4055 28.9194 63.9744 28.6349 64.5826 28.6349ZM72.2352 30.9205C72.2352 31.0481 72.2253 31.2443 72.1959 31.3914H68.5468C68.6645 32.1663 69.1942 32.6372 69.9692 32.6372C70.5087 32.6372 70.9992 32.4018 71.2248 32.029L72.0978 32.5881C71.7447 33.2356 70.9403 33.6279 69.9496 33.6279C68.5664 33.6279 67.458 32.5391 67.458 31.1069C67.458 29.714 68.5468 28.6349 69.9299 28.6349C71.2248 28.6349 72.2352 29.6355 72.2352 30.9205ZM68.5861 30.5576H71.0875C71.0286 29.9592 70.5283 29.5374 69.8711 29.5374C69.2139 29.5374 68.7528 29.9298 68.5861 30.5576ZM75.7046 28.6349C76.9014 28.6349 77.6665 29.4687 77.6665 30.793V33.5298H76.5679V30.9696C76.5679 30.1946 76.1166 29.7238 75.4398 29.7238C74.9493 29.7238 74.4784 29.9788 74.2332 30.3908V33.5298H73.1444V28.733H74.2332V29.3805C74.5275 28.9194 75.0964 28.6349 75.7046 28.6349ZM82.7463 33.6377C81.9714 33.6377 81.1376 33.3631 80.6667 32.9413L81.0983 32.1173C81.4711 32.4704 82.1774 32.7157 82.7169 32.7157C83.1976 32.7157 83.5115 32.49 83.5115 32.186C83.5115 31.3031 80.8433 31.9211 80.8433 30.1456C80.8433 29.2529 81.6084 28.6349 82.7071 28.6349C83.3741 28.6349 84.0706 28.8213 84.5022 29.2137L84.0706 30.0573C83.688 29.7238 83.0014 29.5472 82.5992 29.5472C82.197 29.5472 81.9321 29.7434 81.9321 30.0573C81.9321 30.8715 84.6199 30.3712 84.6199 32.1467C84.6199 33.0099 83.845 33.6377 82.7463 33.6377ZM88.062 28.6349C89.2685 28.6349 90.0238 29.4687 90.0238 30.793V33.5298H88.9252V30.9696C88.9252 30.1946 88.4838 29.7238 87.7971 29.7238C87.3164 29.7238 86.8358 29.9788 86.6004 30.3908V33.5298H85.5115V26.6633H86.6004V29.3805C86.8848 28.9194 87.4538 28.6349 88.062 28.6349ZM93.4191 28.6349C94.8219 28.6349 95.9107 29.714 95.9107 31.1363C95.9107 32.5587 94.8219 33.6279 93.4191 33.6279C92.0164 33.6279 90.9373 32.5587 90.9373 31.1363C90.9373 29.714 92.0164 28.6349 93.4191 28.6349ZM93.4191 29.6846C92.6246 29.6846 92.0164 30.3124 92.0164 31.1363C92.0164 31.9505 92.6246 32.5783 93.4191 32.5783C94.2137 32.5783 94.8317 31.9505 94.8317 31.1363C94.8317 30.3124 94.2137 29.6846 93.4191 29.6846ZM100.248 28.733H101.347V33.5298H100.248V32.8824C99.9639 33.3435 99.3852 33.6279 98.7868 33.6279C97.5802 33.6279 96.8249 32.7941 96.8249 31.4601V28.733H97.9138V31.2933C97.9138 32.0682 98.365 32.5391 99.0516 32.5391C99.5323 32.5391 100.003 32.2742 100.248 31.8622V28.733ZM103.585 26.6633V33.5298H102.496V26.6633H103.585ZM108.242 26.6633H109.33V33.5298H108.242V32.8824C107.987 33.314 107.349 33.6279 106.711 33.6279C105.416 33.6279 104.406 32.5293 104.406 31.1265C104.406 29.7336 105.416 28.6349 106.711 28.6349C107.349 28.6349 107.987 28.9488 108.242 29.3805V26.6633ZM106.937 32.5881C107.476 32.5881 108.006 32.2841 108.242 31.8721V30.4006C108.006 29.9788 107.486 29.6747 106.937 29.6747C106.113 29.6747 105.485 30.2927 105.485 31.1265C105.485 31.9603 106.113 32.5881 106.937 32.5881ZM113.916 33.5298L112.18 28.733H113.347L114.357 31.8426L115.476 28.733H116.358L117.487 31.8426L118.497 28.733H119.664L117.928 33.5298H117.055L115.917 30.4203L114.779 33.5298H113.916ZM124.683 30.9205C124.683 31.0481 124.673 31.2443 124.644 31.3914H120.995C121.112 32.1663 121.642 32.6372 122.417 32.6372C122.956 32.6372 123.447 32.4018 123.673 32.029L124.546 32.5881C124.192 33.2356 123.388 33.6279 122.397 33.6279C121.014 33.6279 119.906 32.5391 119.906 31.1069C119.906 29.714 120.995 28.6349 122.378 28.6349C123.673 28.6349 124.683 29.6355 124.683 30.9205ZM121.034 30.5576H123.535C123.476 29.9592 122.976 29.5374 122.319 29.5374C121.662 29.5374 121.201 29.9298 121.034 30.5576ZM131.338 26.6633H132.427V33.5298H131.338V32.8824C131.083 33.314 130.445 33.6279 129.808 33.6279C128.513 33.6279 127.502 32.5293 127.502 31.1265C127.502 29.7336 128.513 28.6349 129.808 28.6349C130.445 28.6349 131.083 28.9488 131.338 29.3805V26.6633ZM130.033 32.5881C130.573 32.5881 131.102 32.2841 131.338 31.8721V30.4006C131.102 29.9788 130.582 29.6747 130.033 29.6747C129.209 29.6747 128.581 30.2927 128.581 31.1265C128.581 31.9603 129.209 32.5881 130.033 32.5881ZM138.027 30.9205C138.027 31.0481 138.017 31.2443 137.988 31.3914H134.339C134.457 32.1663 134.986 32.6372 135.761 32.6372C136.301 32.6372 136.791 32.4018 137.017 32.029L137.89 32.5881C137.537 33.2356 136.732 33.6279 135.742 33.6279C134.358 33.6279 133.25 32.5391 133.25 31.1069C133.25 29.714 134.339 28.6349 135.722 28.6349C137.017 28.6349 138.027 29.6355 138.027 30.9205ZM134.378 30.5576H136.88C136.821 29.9592 136.32 29.5374 135.663 29.5374C135.006 29.5374 134.545 29.9298 134.378 30.5576ZM140.025 26.6633V33.5298H138.936V26.6633H140.025ZM141.727 26.5063C142.11 26.5063 142.434 26.83 142.434 27.2028C142.434 27.5951 142.11 27.9091 141.727 27.9091C141.345 27.9091 141.031 27.5951 141.031 27.2028C141.031 26.83 141.345 26.5063 141.727 26.5063ZM141.178 28.733H142.267V33.5298H141.178V28.733ZM147.922 28.733L145.911 33.5298H144.97L142.959 28.733H144.146L145.44 32.0682L146.725 28.733H147.922ZM152.856 30.9205C152.856 31.0481 152.846 31.2443 152.817 31.3914H149.168C149.286 32.1663 149.815 32.6372 150.59 32.6372C151.13 32.6372 151.62 32.4018 151.846 32.029L152.719 32.5881C152.366 33.2356 151.561 33.6279 150.571 33.6279C149.188 33.6279 148.079 32.5391 148.079 31.1069C148.079 29.714 149.168 28.6349 150.551 28.6349C151.846 28.6349 152.856 29.6355 152.856 30.9205ZM149.207 30.5576H151.709C151.65 29.9592 151.149 29.5374 150.492 29.5374C149.835 29.5374 149.374 29.9298 149.207 30.5576ZM156.081 28.6349C156.306 28.6349 156.493 28.6644 156.63 28.7134L156.561 29.7434C156.394 29.6846 156.179 29.6453 155.992 29.6453C155.629 29.6453 155.109 29.9396 154.854 30.4693V33.5298H153.766V28.733H154.854V29.3903C155.1 28.9292 155.639 28.6349 156.081 28.6349ZM162.357 32.5195L162.415 33.4808C162.258 33.5593 162.033 33.5985 161.827 33.5985C160.767 33.5985 160.022 32.9217 160.022 31.7347V29.7728H159.1V28.733H160.022V27.448H161.111V28.733H162.366V29.7728H161.111V31.6857C161.111 32.2448 161.503 32.5783 161.984 32.5783C162.102 32.5783 162.258 32.5489 162.357 32.5195ZM165.838 28.6349C167.045 28.6349 167.8 29.4687 167.8 30.793V33.5298H166.701V30.9696C166.701 30.1946 166.26 29.7238 165.573 29.7238C165.092 29.7238 164.612 29.9788 164.376 30.3908V33.5298H163.288V26.6633H164.376V29.3805C164.661 28.9194 165.23 28.6349 165.838 28.6349ZM169.508 26.5063C169.89 26.5063 170.214 26.83 170.214 27.2028C170.214 27.5951 169.89 27.9091 169.508 27.9091C169.125 27.9091 168.811 27.5951 168.811 27.2028C168.811 26.83 169.125 26.5063 169.508 26.5063ZM168.959 28.733H170.047V33.5298H168.959V28.733ZM172.976 33.6377C172.201 33.6377 171.367 33.3631 170.896 32.9413L171.328 32.1173C171.7 32.4704 172.407 32.7157 172.946 32.7157C173.427 32.7157 173.741 32.49 173.741 32.186C173.741 31.3031 171.073 31.9211 171.073 30.1456C171.073 29.2529 171.838 28.6349 172.936 28.6349C173.604 28.6349 174.3 28.8213 174.732 29.2137L174.3 30.0573C173.917 29.7238 173.231 29.5472 172.829 29.5472C172.426 29.5472 172.162 29.7434 172.162 30.0573C172.162 30.8715 174.849 30.3712 174.849 32.1467C174.849 33.0099 174.074 33.6377 172.976 33.6377ZM182.369 32.3135C182.006 33.108 181.163 33.6279 180.162 33.6279C178.74 33.6279 177.651 32.5587 177.651 31.1363C177.651 29.714 178.73 28.6349 180.152 28.6349C181.084 28.6349 181.869 29.096 182.222 29.8023L181.3 30.3222C181.104 29.9396 180.672 29.6846 180.152 29.6846C179.328 29.6846 178.73 30.3124 178.73 31.1363C178.73 31.9505 179.338 32.5783 180.162 32.5783C180.721 32.5783 181.182 32.3135 181.398 31.8721L182.369 32.3135ZM186.554 28.733H187.643V33.5298H186.554V32.8824C186.299 33.314 185.661 33.6279 185.024 33.6279C183.729 33.6279 182.719 32.5293 182.719 31.1265C182.719 29.7336 183.729 28.6349 185.024 28.6349C185.661 28.6349 186.299 28.9488 186.554 29.3805V28.733ZM185.249 32.5881C185.789 32.5881 186.319 32.2841 186.554 31.8721V30.4006C186.319 29.9788 185.799 29.6747 185.249 29.6747C184.425 29.6747 183.798 30.2927 183.798 31.1265C183.798 31.9603 184.425 32.5881 185.249 32.5881ZM191.113 28.6349C191.338 28.6349 191.525 28.6644 191.662 28.7134L191.593 29.7434C191.427 29.6846 191.211 29.6453 191.025 29.6453C190.662 29.6453 190.142 29.9396 189.887 30.4693V33.5298H188.798V28.733H189.887V29.3903C190.132 28.9292 190.671 28.6349 191.113 28.6349ZM195.664 26.6633H196.753V33.5298H195.664V32.8824C195.409 33.314 194.772 33.6279 194.134 33.6279C192.839 33.6279 191.829 32.5293 191.829 31.1265C191.829 29.7336 192.839 28.6349 194.134 28.6349C194.772 28.6349 195.409 28.9488 195.664 29.3805V26.6633ZM194.36 32.5881C194.899 32.5881 195.429 32.2841 195.664 31.8721V30.4006C195.429 29.9788 194.909 29.6747 194.36 29.6747C193.536 29.6747 192.908 30.2927 192.908 31.1265C192.908 31.9603 193.536 32.5881 194.36 32.5881ZM199.86 26.5652C201.165 26.5652 202.096 27.399 202.096 28.5761C202.096 30.4203 200.252 30.4399 200.252 31.5385H199.154C199.154 29.7532 200.919 29.8415 200.919 28.6938C200.919 28.0954 200.468 27.6834 199.821 27.6834C199.095 27.6834 198.595 28.2033 198.575 28.939L197.457 28.8311C197.496 27.5167 198.477 26.5652 199.86 26.5652ZM199.732 33.6279C199.311 33.6279 198.977 33.2944 198.977 32.8824C198.977 32.4606 199.311 32.1369 199.732 32.1369C200.164 32.1369 200.488 32.4606 200.488 32.8824C200.488 33.2944 200.164 33.6279 199.732 33.6279Z" fill="#333333"/>
</g>
<rect width="253.819" height="197.32" transform="translate(0 43.744)" fill="white"/>
<g opacity="0.24">
<path d="M46.5153 69.0427C45.5424 69.0427 44.9936 68.4394 44.9352 67.6339L44.9314 67.5794H45.6319L45.6358 67.6183C45.6786 68.0425 45.9549 68.3966 46.5114 68.3966C47.134 68.3966 47.4687 68.0269 47.4687 67.342V63.2947H48.1692V67.3498C48.1692 68.4122 47.5543 69.0427 46.5153 69.0427ZM50.8716 68.9843C49.9181 68.9843 49.4278 68.4239 49.4278 67.4315V64.7151H50.1049V67.2681C50.1049 68.023 50.3774 68.385 51.0467 68.385C51.7861 68.385 52.1792 67.9335 52.1792 67.198V64.7151H52.8564V68.9103H52.1792V68.2838H52.1169C51.9107 68.7313 51.4865 68.9843 50.8716 68.9843ZM55.7844 68.9843C54.5858 68.9843 53.862 68.1437 53.862 66.8283V66.8244C53.862 65.5285 54.6014 64.6412 55.7416 64.6412C56.8819 64.6412 57.5746 65.4896 57.5746 66.7427V67.0073H54.5547C54.5741 67.8752 55.0528 68.3811 55.8 68.3811C56.3682 68.3811 56.7184 68.1125 56.8313 67.8596L56.8469 67.8246H57.524L57.5162 67.8557C57.3722 68.4239 56.7729 68.9843 55.7844 68.9843ZM55.7377 65.2444C55.1151 65.2444 54.6403 65.6686 54.5663 66.4664H56.8858C56.8157 65.6374 56.3565 65.2444 55.7377 65.2444Z" fill="#181818" fill-opacity="0.48"/>
<path d="M124.817 68.9103V64.073H124.754L123.326 65.1082V64.3688L124.82 63.2947H125.517V68.9103H124.817ZM127.324 68.9103L129.846 63.9757V63.9212H126.842V63.2947H130.558V63.9446L128.06 68.9103H127.324Z" fill="#181818" fill-opacity="0.48"/>
<path d="M189.216 69.0037C188.056 69.0037 187.305 68.3577 187.231 67.4704L187.227 67.4237H187.901L187.904 67.4626C187.959 68.0153 188.469 68.3966 189.216 68.3966C189.952 68.3966 190.454 67.9841 190.454 67.3887V67.3809C190.454 66.6921 189.959 66.3068 189.173 66.3068H188.469V65.7153H189.142C189.811 65.7153 190.278 65.3028 190.278 64.7424V64.7346C190.278 64.1469 189.893 63.8084 189.208 63.8084C188.547 63.8084 188.076 64.1586 188.017 64.7268L188.013 64.7657H187.34L187.344 64.7268C187.434 63.8122 188.157 63.2013 189.208 63.2013C190.278 63.2013 190.983 63.7967 190.983 64.649V64.6567C190.983 65.3495 190.492 65.8242 189.792 65.9721V65.9877C190.609 66.0577 191.166 66.5676 191.166 67.3653V67.3731C191.166 68.311 190.341 69.0037 189.216 69.0037ZM192.81 65.1004C192.533 65.1004 192.304 64.8708 192.304 64.5945C192.304 64.3143 192.533 64.0886 192.81 64.0886C193.09 64.0886 193.315 64.3143 193.315 64.5945C193.315 64.8708 193.09 65.1004 192.81 65.1004ZM192.81 68.1125C192.533 68.1125 192.304 67.8829 192.304 67.6066C192.304 67.3264 192.533 67.1007 192.81 67.1007C193.09 67.1007 193.315 67.3264 193.315 67.6066C193.315 67.8829 193.09 68.1125 192.81 68.1125ZM196.45 69.0427C195.208 69.0427 194.469 67.9102 194.469 66.1044V66.0967C194.469 64.2909 195.208 63.1623 196.45 63.1623C197.691 63.1623 198.438 64.2909 198.438 66.0967V66.1044C198.438 67.9102 197.691 69.0427 196.45 69.0427ZM196.45 68.4317C197.255 68.4317 197.734 67.5366 197.734 66.1044V66.0967C197.734 64.6645 197.255 63.7772 196.45 63.7772C195.644 63.7772 195.173 64.6645 195.173 66.0967V66.1044C195.173 67.5366 195.644 68.4317 196.45 68.4317ZM201.421 69.0427C200.18 69.0427 199.44 67.9102 199.44 66.1044V66.0967C199.44 64.2909 200.18 63.1623 201.421 63.1623C202.662 63.1623 203.41 64.2909 203.41 66.0967V66.1044C203.41 67.9102 202.662 69.0427 201.421 69.0427ZM201.421 68.4317C202.227 68.4317 202.705 67.5366 202.705 66.1044V66.0967C202.705 64.6645 202.227 63.7772 201.421 63.7772C200.615 63.7772 200.145 64.6645 200.145 66.0967V66.1044C200.145 67.5366 200.615 68.4317 201.421 68.4317ZM206.347 68.9103L208.417 63.2947H209.11L211.181 68.9103H210.445L209.881 67.3031H207.647L207.083 68.9103H206.347ZM208.733 64.2014L207.853 66.7077H209.674L208.795 64.2014H208.733ZM212.116 68.9103V63.2947H212.929L214.852 67.9802H214.914L216.837 63.2947H217.65V68.9103H216.996V64.6217H216.953L215.179 68.9103H214.587L212.813 64.6217H212.77V68.9103H212.116Z" fill="#181818" fill-opacity="0.48"/>
</g>
<path d="M44.9111 86.9677C43.7885 86.9677 43.1554 86.2717 43.088 85.3422L43.0835 85.2793H43.8918L43.8963 85.3243C43.9457 85.8137 44.2645 86.2223 44.9066 86.2223C45.6251 86.2223 46.0113 85.7957 46.0113 85.0054V80.3354H46.8196V85.0144C46.8196 86.2403 46.1101 86.9677 44.9111 86.9677ZM49.8471 86.9004C48.747 86.9004 48.1812 86.2538 48.1812 85.1087V81.9744H48.9625V84.9201C48.9625 85.7913 49.2768 86.2089 50.0492 86.2089C50.9024 86.2089 51.3559 85.688 51.3559 84.8393V81.9744H52.1372V86.8151H51.3559V86.0921H51.284C51.0461 86.6085 50.5566 86.9004 49.8471 86.9004ZM53.4944 86.8151V80.0525H54.2757V86.8151H53.4944ZM56.0415 88.5124C55.9382 88.5124 55.8035 88.5035 55.6957 88.4855V87.8434C55.79 87.8613 55.9112 87.8658 56.019 87.8658C56.4636 87.8658 56.733 87.6637 56.9081 87.1069L56.9979 86.8196L55.2062 81.9744H56.0415L57.3706 85.9574H57.4425L58.7671 81.9744H59.5889L57.6984 87.1114C57.2988 88.1981 56.8991 88.5124 56.0415 88.5124Z" fill="#181818" fill-opacity="0.48"/>
<path d="M124.221 86.8151V81.2335H124.149L122.501 82.4279V81.5748L124.226 80.3354H125.029V86.8151H124.221ZM128.968 86.9228C127.594 86.9228 126.615 86.1505 126.615 85.0638V85.0548C126.615 84.2555 127.177 83.591 128.007 83.3979V83.3799C127.298 83.1599 126.849 82.621 126.849 81.9385V81.9295C126.849 80.9506 127.743 80.2277 128.968 80.2277C130.194 80.2277 131.088 80.9506 131.088 81.9295V81.9385C131.088 82.621 130.639 83.1599 129.929 83.3799V83.3979C130.76 83.591 131.321 84.2555 131.321 85.0548V85.0638C131.321 86.1505 130.343 86.9228 128.968 86.9228ZM128.968 83.0791C129.75 83.0791 130.284 82.6345 130.284 82.0059V81.9969C130.284 81.3682 129.75 80.9237 128.968 80.9237C128.187 80.9237 127.653 81.3682 127.653 81.9969V82.0059C127.653 82.6345 128.187 83.0791 128.968 83.0791ZM128.968 86.2178C129.862 86.2178 130.5 85.7149 130.5 85.0144V85.0054C130.5 84.296 129.867 83.7885 128.968 83.7885C128.07 83.7885 127.437 84.296 127.437 85.0054V85.0144C127.437 85.7149 128.075 86.2178 128.968 86.2178Z" fill="#181818" fill-opacity="0.48"/>
<path d="M187.44 86.9228C186.102 86.9228 185.236 86.1774 185.15 85.1536L185.146 85.0997H185.923L185.927 85.1446C185.99 85.7823 186.578 86.2223 187.44 86.2223C188.289 86.2223 188.868 85.7463 188.868 85.0593V85.0503C188.868 84.2555 188.298 83.811 187.391 83.811H186.578V83.1284H187.355C188.128 83.1284 188.666 82.6525 188.666 82.0059V81.9969C188.666 81.3188 188.222 80.9282 187.432 80.9282C186.668 80.9282 186.125 81.3323 186.057 81.9879L186.053 82.0328H185.276L185.281 81.9879C185.384 80.9326 186.219 80.2277 187.432 80.2277C188.666 80.2277 189.479 80.9147 189.479 81.8981V81.9071C189.479 82.7064 188.913 83.2542 188.105 83.4248V83.4428C189.048 83.5236 189.69 84.1118 189.69 85.0324V85.0414C189.69 86.1235 188.738 86.9228 187.44 86.9228ZM191.496 82.419C191.178 82.419 190.913 82.154 190.913 81.8352C190.913 81.5119 191.178 81.2515 191.496 81.2515C191.82 81.2515 192.08 81.5119 192.08 81.8352C192.08 82.154 191.82 82.419 191.496 82.419ZM191.496 85.8945C191.178 85.8945 190.913 85.6296 190.913 85.3108C190.913 84.9875 191.178 84.727 191.496 84.727C191.82 84.727 192.08 84.9875 192.08 85.3108C192.08 85.6296 191.82 85.8945 191.496 85.8945ZM195.606 86.9677C194.174 86.9677 193.32 85.661 193.32 83.5775V83.5685C193.32 81.485 194.174 80.1828 195.606 80.1828C197.039 80.1828 197.901 81.485 197.901 83.5685V83.5775C197.901 85.661 197.039 86.9677 195.606 86.9677ZM195.606 86.2627C196.536 86.2627 197.088 85.23 197.088 83.5775V83.5685C197.088 81.916 196.536 80.8922 195.606 80.8922C194.677 80.8922 194.133 81.916 194.133 83.5685V83.5775C194.133 85.23 194.677 86.2627 195.606 86.2627ZM201.252 86.9677C199.819 86.9677 198.966 85.661 198.966 83.5775V83.5685C198.966 81.485 199.819 80.1828 201.252 80.1828C202.684 80.1828 203.546 81.485 203.546 83.5685V83.5775C203.546 85.661 202.684 86.9677 201.252 86.9677ZM201.252 86.2627C202.181 86.2627 202.733 85.23 202.733 83.5775V83.5685C202.733 81.916 202.181 80.8922 201.252 80.8922C200.322 80.8922 199.779 81.916 199.779 83.5685V83.5775C199.779 85.23 200.322 86.2627 201.252 86.2627ZM206.754 86.8151L209.143 80.3354H209.943L212.331 86.8151H211.483L210.832 84.9605H208.254L207.603 86.8151H206.754ZM209.507 81.3817L208.492 84.2735H210.594L209.579 81.3817H209.507ZM213.32 86.8151V80.3354H214.259L216.477 85.7419H216.549L218.767 80.3354H219.706V86.8151H218.951V81.8666H218.902L216.854 86.8151H216.172L214.124 81.8666H214.075V86.8151H213.32Z" fill="#181818" fill-opacity="0.48"/>
<path d="M33.428 106.72L36.4824 98.5122H37.4948L40.5435 106.72H39.4685L38.6381 104.371H35.3335L34.503 106.72H33.428ZM36.9772 99.7408L35.6463 103.5H38.3309L37 99.7408H36.9772ZM43.4156 106.834C42.1188 106.834 41.368 105.992 41.368 104.644V100.804H42.3577V104.467C42.3577 105.429 42.807 105.958 43.7171 105.958C44.6499 105.958 45.2585 105.292 45.2585 104.285V100.804H46.2482V106.72H45.2585V105.878H45.2357C44.9172 106.43 44.3143 106.834 43.4156 106.834ZM50.2749 108.824C48.8132 108.824 47.8917 108.136 47.6983 107.26L47.687 107.209H48.6823L48.7051 107.26C48.8928 107.687 49.4559 107.948 50.2636 107.948C51.3044 107.948 51.896 107.374 51.896 106.458V105.702H51.8732C51.5206 106.356 50.838 106.777 49.9905 106.777C48.5003 106.777 47.4822 105.577 47.4822 103.728V103.722C47.4822 101.885 48.5117 100.691 50.0133 100.691C50.8494 100.691 51.5092 101.146 51.8732 101.806H51.896V100.804H52.8857V106.555C52.8857 107.926 51.8789 108.824 50.2749 108.824ZM50.2067 105.901C51.2134 105.901 51.896 105.042 51.896 103.728V103.722C51.896 102.42 51.2077 101.567 50.2067 101.567C49.1544 101.567 48.4946 102.408 48.4946 103.722V103.728C48.4946 105.07 49.1544 105.901 50.2067 105.901ZM56.4176 106.834C55.1207 106.834 54.37 105.992 54.37 104.644V100.804H55.3596V104.467C55.3596 105.429 55.809 105.958 56.719 105.958C57.6518 105.958 58.2604 105.292 58.2604 104.285V100.804H59.2501V106.72H58.2604V105.878H58.2377C57.9192 106.43 57.3162 106.834 56.4176 106.834ZM62.873 106.834C61.4795 106.834 60.6377 106.123 60.5183 105.065L60.5126 105.013H61.5023L61.5136 105.07C61.6331 105.662 62.0711 106.009 62.8787 106.009C63.6807 106.009 64.1585 105.673 64.1585 105.139V105.133C64.1585 104.706 63.9367 104.467 63.2655 104.302L62.327 104.075C61.2122 103.808 60.6718 103.29 60.6718 102.437V102.431C60.6718 101.413 61.5648 100.691 62.8446 100.691C64.1414 100.691 64.9662 101.447 65.0401 102.437L65.0458 102.511H64.1016L64.0959 102.471C64.0163 101.897 63.5783 101.515 62.8446 101.515C62.1279 101.515 61.6843 101.862 61.6843 102.386V102.391C61.6843 102.795 61.9516 103.074 62.6057 103.233L63.5442 103.461C64.7386 103.751 65.1709 104.223 65.1709 105.065V105.07C65.1709 106.106 64.1926 106.834 62.873 106.834ZM68.3559 106.834C67.2695 106.834 66.7348 106.344 66.7348 105.213V101.623H65.8703V100.804H66.7348V99.2062H67.7587V100.804H68.8848V101.623H67.7587V105.207C67.7587 105.838 68.0374 106.014 68.5663 106.014C68.6858 106.014 68.7995 105.997 68.8848 105.992V106.794C68.7597 106.811 68.5493 106.834 68.3559 106.834Z" fill="#181818" fill-opacity="0.48"/>
<path d="M123.374 106.72V99.5986H123.351L121.179 101.112V100.082L123.363 98.5122H124.364V106.72H123.374ZM129.568 98.3757C131.081 98.3757 132.685 99.4223 132.685 102.465V102.477C132.685 105.241 131.508 106.856 129.5 106.856C128.106 106.856 127.065 106.06 126.792 104.866L126.775 104.792H127.816L127.839 104.854C128.083 105.531 128.669 105.952 129.511 105.952C131.041 105.952 131.644 104.467 131.69 102.744C131.695 102.687 131.695 102.63 131.695 102.568H131.673C131.343 103.296 130.501 103.887 129.386 103.887C127.822 103.887 126.662 102.733 126.662 101.174V101.163C126.662 99.5474 127.89 98.3757 129.568 98.3757ZM129.562 102.989C130.637 102.989 131.451 102.226 131.451 101.18V101.174C131.451 100.122 130.632 99.2858 129.579 99.2858C128.533 99.2858 127.702 100.105 127.702 101.14V101.151C127.702 102.221 128.482 102.989 129.562 102.989Z" fill="#181818" fill-opacity="0.48"/>
<path d="M184.817 106.72V105.013H180.693V104.086L184.294 98.5122H185.806V104.115H186.967V105.013H185.806V106.72H184.817ZM181.706 104.115H184.817V99.3882H184.783L181.706 104.092V104.115ZM188.775 101.06C188.411 101.06 188.127 100.776 188.127 100.412C188.127 100.048 188.411 99.7636 188.775 99.7636C189.139 99.7636 189.424 100.048 189.424 100.412C189.424 100.776 189.139 101.06 188.775 101.06ZM188.775 105.463C188.411 105.463 188.127 105.178 188.127 104.814C188.127 104.45 188.411 104.166 188.775 104.166C189.139 104.166 189.424 104.45 189.424 104.814C189.424 105.178 189.139 105.463 188.775 105.463ZM193.786 106.856C191.898 106.856 190.777 105.224 190.777 102.619V102.607C190.777 100.002 191.898 98.3757 193.786 98.3757C195.674 98.3757 196.806 100.002 196.806 102.607V102.619C196.806 105.224 195.674 106.856 193.786 106.856ZM193.786 105.963C195.037 105.963 195.777 104.678 195.777 102.619V102.607C195.777 100.548 195.037 99.2744 193.786 99.2744C192.535 99.2744 191.807 100.548 191.807 102.607V102.619C191.807 104.678 192.535 105.963 193.786 105.963ZM201.083 106.856C199.195 106.856 198.074 105.224 198.074 102.619V102.607C198.074 100.002 199.195 98.3757 201.083 98.3757C202.972 98.3757 204.104 100.002 204.104 102.607V102.619C204.104 105.224 202.972 106.856 201.083 106.856ZM201.083 105.963C202.335 105.963 203.074 104.678 203.074 102.619V102.607C203.074 100.548 202.335 99.2744 201.083 99.2744C199.832 99.2744 199.104 100.548 199.104 102.607V102.619C199.104 104.678 199.832 105.963 201.083 105.963ZM207.618 106.72L210.673 98.5122H211.685L214.734 106.72H213.659L212.828 104.371H209.524L208.693 106.72H207.618ZM211.167 99.7408L209.836 103.5H212.521L211.19 99.7408H211.167ZM215.911 106.72V98.5122H217.094L219.938 105.429H219.972L222.816 98.5122H223.999V106.72H223.043V100.378H223.009L220.387 106.72H219.523L216.901 100.378H216.866V106.72H215.911Z" fill="#181818" fill-opacity="0.48"/>
<rect x="12.2617" y="113.172" width="229.295" height="27.8094" rx="4.90471" fill="#767680" fill-opacity="0.12"/>
<path d="M22.2564 131.235C20.1225 131.235 18.7131 130.221 18.5946 128.548L18.588 128.449H20.0237L20.0369 128.535C20.1686 129.411 21.0445 129.957 22.3156 129.957C23.5867 129.957 24.3902 129.384 24.3902 128.495V128.489C24.3902 127.725 23.8699 127.31 22.612 127.033L21.578 126.816C19.7142 126.421 18.8119 125.564 18.8119 124.155V124.148C18.8185 122.528 20.2477 121.415 22.2564 121.415C24.2387 121.415 25.5954 122.495 25.6942 124.089L25.7008 124.201H24.2651L24.2585 124.109C24.1268 123.226 23.3628 122.693 22.2366 122.693C21.0577 122.7 20.3069 123.259 20.3069 124.089V124.096C20.3069 124.807 20.847 125.242 22.0324 125.499L23.073 125.716C25.0356 126.131 25.8786 126.928 25.8786 128.396V128.403C25.8786 130.135 24.5087 131.235 22.2564 131.235ZM30.2094 131.215C28.1743 131.215 26.9428 129.826 26.9428 127.639V127.632C26.9428 125.466 28.1941 124.017 30.1369 124.017C32.0798 124.017 33.2718 125.413 33.2718 127.494V127.975H28.3653C28.3917 129.285 29.1095 130.049 30.2423 130.049C31.0853 130.049 31.6451 129.615 31.8229 129.094L31.8427 129.042H33.1928L33.1796 129.114C32.9557 130.214 31.8888 131.215 30.2094 131.215ZM30.1435 125.182C29.2215 125.182 28.5102 125.808 28.3851 126.967H31.8624C31.7439 125.769 31.0721 125.182 30.1435 125.182ZM34.5928 133.382V124.148H36.0154V125.341H36.0483C36.4632 124.517 37.2272 124.017 38.2151 124.017C39.9801 124.017 41.1129 125.4 41.1129 127.613V127.619C41.1129 129.826 39.9735 131.215 38.2349 131.215C37.2536 131.215 36.4567 130.715 36.0483 129.911H36.0154V133.382H34.5928ZM37.8463 129.99C38.9659 129.99 39.664 129.081 39.664 127.619V127.613C39.664 126.137 38.9593 125.235 37.8463 125.235C36.7662 125.235 36.0088 126.17 36.0088 127.613V127.619C36.0088 129.055 36.7728 129.99 37.8463 129.99ZM44.8641 131.215C43.4942 131.215 42.8357 130.636 42.8357 129.253V125.281H41.8412V124.148H42.8357V122.344H44.2911V124.148H45.5886V125.281H44.2911V129.167C44.2911 129.872 44.6073 130.082 45.2066 130.082C45.3581 130.082 45.4832 130.069 45.5886 130.056V131.156C45.4239 131.182 45.1539 131.215 44.8641 131.215ZM49.7679 131.215C47.7328 131.215 46.5012 129.826 46.5012 127.639V127.632C46.5012 125.466 47.7526 124.017 49.6954 124.017C51.6383 124.017 52.8303 125.413 52.8303 127.494V127.975H47.9238C47.9501 129.285 48.668 130.049 49.8008 130.049C50.6438 130.049 51.2036 129.615 51.3814 129.094L51.4012 129.042H52.7513L52.7381 129.114C52.5142 130.214 51.4473 131.215 49.7679 131.215ZM49.702 125.182C48.78 125.182 48.0687 125.808 47.9436 126.967H51.4209C51.3024 125.769 50.6306 125.182 49.702 125.182ZM54.1513 131.077V124.148H55.5739V125.222H55.6068C55.9032 124.498 56.6079 124.017 57.5167 124.017C58.4717 124.017 59.1698 124.511 59.4464 125.38H59.4793C59.835 124.537 60.6516 124.017 61.6395 124.017C63.0094 124.017 63.9051 124.926 63.9051 126.315V131.077H62.4759V126.658C62.4759 125.755 61.9951 125.235 61.1521 125.235C60.3092 125.235 59.723 125.867 59.723 126.743V131.077H58.3268V126.552C58.3268 125.749 57.8197 125.235 57.0162 125.235C56.1732 125.235 55.5739 125.9 55.5739 126.796V131.077H54.1513ZM69.1776 131.215C68.1831 131.215 67.4126 130.715 67.0043 129.905H66.9713V131.077H65.5488V121.573H66.9713V125.327H67.0043C67.4192 124.511 68.2095 124.017 69.1908 124.017C70.9295 124.017 72.0754 125.4 72.0754 127.606V127.613C72.0754 129.819 70.9361 131.215 69.1776 131.215ZM68.8022 129.99C69.9218 129.99 70.6199 129.088 70.6199 127.613V127.606C70.6199 126.144 69.9218 125.235 68.8022 125.235C67.7287 125.235 66.9648 126.17 66.9648 127.606V127.613C66.9648 129.055 67.7221 129.99 68.8022 129.99ZM76.3469 131.215C74.3119 131.215 73.0803 129.826 73.0803 127.639V127.632C73.0803 125.466 74.3316 124.017 76.2745 124.017C78.2173 124.017 79.4094 125.413 79.4094 127.494V127.975H74.5029C74.5292 129.285 75.2471 130.049 76.3799 130.049C77.2229 130.049 77.7827 129.615 77.9605 129.094L77.9802 129.042H79.3303L79.3172 129.114C79.0932 130.214 78.0263 131.215 76.3469 131.215ZM76.2811 125.182C75.359 125.182 74.6478 125.808 74.5226 126.967H78C77.8814 125.769 77.2097 125.182 76.2811 125.182ZM80.7304 131.077V124.148H82.1529V125.334H82.1859C82.4098 124.524 82.9894 124.017 83.7797 124.017C83.9838 124.017 84.1616 124.05 84.2736 124.069V125.393C84.1616 125.347 83.9114 125.314 83.6348 125.314C82.7193 125.314 82.1529 125.913 82.1529 126.947V131.077H80.7304Z" fill="#181818"/>
<path d="M119.432 131.077V130.063L122.778 126.697C124.042 125.433 124.325 124.932 124.325 124.195V124.181C124.319 123.279 123.634 122.634 122.672 122.634C121.559 122.634 120.762 123.384 120.749 124.346V124.386H119.353V124.346C119.353 122.647 120.795 121.415 122.653 121.415C124.477 121.415 125.781 122.561 125.781 124.096V124.109C125.781 125.196 125.274 125.966 123.568 127.652L121.408 129.773V129.832H125.932V131.077H119.432ZM130.915 131.235C128.643 131.235 127.286 129.345 127.286 126.328V126.315C127.286 123.299 128.643 121.415 130.915 121.415C133.181 121.415 134.544 123.299 134.544 126.315V126.328C134.544 129.345 133.181 131.235 130.915 131.235ZM130.915 130.003C132.265 130.003 133.056 128.607 133.056 126.328V126.315C133.056 124.037 132.265 122.653 130.915 122.653C129.559 122.653 128.775 124.037 128.775 126.315V126.328C128.775 128.607 129.559 130.003 130.915 130.003Z" fill="#181818"/>
<path d="M180.567 131.235C178.663 131.235 177.34 130.082 177.208 128.515L177.201 128.436H178.611L178.617 128.489C178.742 129.345 179.519 130.003 180.58 130.003C181.778 130.003 182.615 129.174 182.615 127.995V127.981C182.608 126.816 181.772 125.993 180.593 125.993C180.007 125.993 179.5 126.164 179.118 126.506C178.94 126.658 178.788 126.842 178.663 127.053H177.372L177.84 121.573H183.504V122.818H179.032L178.742 125.828H178.775C179.203 125.189 179.994 124.827 180.929 124.827C182.747 124.827 184.057 126.137 184.057 127.955V127.968C184.057 129.898 182.615 131.235 180.567 131.235ZM186.247 124.715C185.76 124.715 185.378 124.333 185.378 123.846C185.378 123.365 185.76 122.983 186.247 122.983C186.728 122.983 187.11 123.365 187.11 123.846C187.11 124.333 186.728 124.715 186.247 124.715ZM186.247 129.661C185.76 129.661 185.378 129.279 185.378 128.798C185.378 128.311 185.76 127.935 186.247 127.935C186.728 127.935 187.11 128.311 187.11 128.798C187.11 129.279 186.728 129.661 186.247 129.661ZM192.185 131.235C189.913 131.235 188.556 129.345 188.556 126.328V126.315C188.556 123.299 189.913 121.415 192.185 121.415C194.451 121.415 195.814 123.299 195.814 126.315V126.328C195.814 129.345 194.451 131.235 192.185 131.235ZM192.185 130.003C193.535 130.003 194.326 128.607 194.326 126.328V126.315C194.326 124.037 193.535 122.653 192.185 122.653C190.829 122.653 190.045 124.037 190.045 126.315V126.328C190.045 128.607 190.829 130.003 192.185 130.003ZM200.817 131.235C198.544 131.235 197.188 129.345 197.188 126.328V126.315C197.188 123.299 198.544 121.415 200.817 121.415C203.082 121.415 204.445 123.299 204.445 126.315V126.328C204.445 129.345 203.082 131.235 200.817 131.235ZM200.817 130.003C202.167 130.003 202.957 128.607 202.957 126.328V126.315C202.957 124.037 202.167 122.653 200.817 122.653C199.46 122.653 198.676 124.037 198.676 126.315V126.328C198.676 128.607 199.46 130.003 200.817 130.003ZM208.365 131.077L211.823 121.573H213.417L216.868 131.077H215.32L214.451 128.508H210.789L209.913 131.077H208.365ZM212.606 123.147L211.184 127.323H214.049L212.633 123.147H212.606ZM218.136 131.077V121.573H219.842L222.917 129.16H222.957L226.039 121.573H227.738V131.077H226.395V124.063H226.349L223.484 131.077H222.39L219.525 124.063H219.479V131.077H218.136Z" fill="#181818"/>
<path d="M34.9098 154.57C32.5778 154.57 31.1217 152.938 31.1217 150.333V150.322C31.1217 147.722 32.5835 146.09 34.9098 146.09C37.2305 146.09 38.6865 147.722 38.6865 150.322V150.333C38.6865 152.938 37.2362 154.57 34.9098 154.57ZM34.9098 153.626C36.5991 153.626 37.64 152.335 37.64 150.333V150.322C37.64 148.308 36.5821 147.034 34.9098 147.034C33.2319 147.034 32.1683 148.302 32.1683 150.322V150.333C32.1683 152.352 33.2262 153.626 34.9098 153.626ZM42.4915 154.548C40.8136 154.548 39.7499 153.353 39.7499 151.471V151.465C39.7499 149.599 40.8363 148.405 42.4801 148.405C43.9533 148.405 44.8235 149.383 44.9486 150.396L44.9543 150.441H43.9874L43.976 150.396C43.8281 149.804 43.3503 149.281 42.4801 149.281C41.4506 149.281 40.7624 150.134 40.7624 151.476V151.482C40.7624 152.858 41.4677 153.672 42.4915 153.672C43.2992 153.672 43.8167 153.217 43.9817 152.557L43.9931 152.511H44.9657L44.96 152.551C44.8007 153.677 43.8281 154.548 42.4915 154.548ZM48.0312 154.548C46.9448 154.548 46.4102 154.059 46.4102 152.927V149.338H45.5456V148.519H46.4102V146.92H47.434V148.519H48.5602V149.338H47.434V152.921C47.434 153.552 47.7127 153.729 48.2417 153.729C48.3611 153.729 48.4749 153.712 48.5602 153.706V154.508C48.435 154.525 48.2246 154.548 48.0312 154.548ZM52.1376 154.548C50.4938 154.548 49.3961 153.359 49.3961 151.476V151.465C49.3961 149.582 50.4995 148.405 52.1319 148.405C53.7643 148.405 54.8734 149.576 54.8734 151.465V151.476C54.8734 153.365 53.77 154.548 52.1376 154.548ZM52.1433 153.672C53.1842 153.672 53.861 152.864 53.861 151.476V151.465C53.861 150.077 53.1785 149.281 52.1319 149.281C51.1024 149.281 50.4085 150.083 50.4085 151.465V151.476C50.4085 152.87 51.0967 153.672 52.1433 153.672ZM59.0481 154.548C58.2006 154.548 57.5408 154.121 57.1711 153.433H57.1483V154.434H56.1587V146.226H57.1483V149.508H57.1711C57.5408 148.826 58.229 148.405 59.0651 148.405C60.5497 148.405 61.5621 149.605 61.5621 151.471V151.476C61.5621 153.342 60.561 154.548 59.0481 154.548ZM58.8547 153.672C59.9013 153.672 60.5497 152.836 60.5497 151.476V151.471C60.5497 150.123 59.9013 149.281 58.8547 149.281C57.8593 149.281 57.1427 150.151 57.1427 151.471V151.476C57.1427 152.801 57.8536 153.672 58.8547 153.672ZM65.2248 154.548C63.5242 154.548 62.5004 153.359 62.5004 151.499V151.493C62.5004 149.662 63.5469 148.405 65.1623 148.405C66.7776 148.405 67.7616 149.605 67.7616 151.38V151.744H63.5014C63.5242 152.961 64.1953 153.672 65.2476 153.672C65.9984 153.672 66.5274 153.296 66.698 152.79L66.7151 152.739H67.6877L67.6763 152.796C67.4829 153.774 66.516 154.548 65.2248 154.548ZM65.1566 149.281C64.2977 149.281 63.6266 149.867 63.5185 150.97H66.7549C66.6582 149.821 66.0211 149.281 65.1566 149.281ZM68.9956 154.434V148.519H69.9853V149.52H70.0081C70.2072 148.837 70.7191 148.405 71.3845 148.405C71.5552 148.405 71.7031 148.433 71.7827 148.445V149.406C71.7031 149.377 71.4926 149.349 71.2537 149.349C70.4859 149.349 69.9853 149.884 69.9853 150.782V154.434H68.9956Z" fill="#181818" fill-opacity="0.48"/>
<path d="M121.577 154.434V153.729L124.466 150.714C125.575 149.559 125.831 149.116 125.831 148.433V148.422C125.826 147.586 125.194 146.983 124.301 146.983C123.278 146.983 122.515 147.688 122.515 148.57V148.598H121.526V148.564C121.526 147.142 122.754 146.09 124.284 146.09C125.769 146.09 126.855 147.085 126.855 148.371V148.382C126.855 149.281 126.44 149.958 124.933 151.499L122.982 153.501V153.524H126.992V154.434H121.577ZM130.501 154.434V147.313H130.478L128.305 148.826V147.796L130.489 146.226H131.491V154.434H130.501Z" fill="#181818" fill-opacity="0.48"/>
<path d="M183.81 154.57C182.297 154.57 180.693 153.524 180.693 150.481V150.469C180.693 147.705 181.871 146.09 183.878 146.09C185.272 146.09 186.313 146.886 186.586 148.081L186.603 148.155H185.562L185.539 148.092C185.295 147.415 184.709 146.994 183.867 146.994C182.337 146.994 181.734 148.479 181.689 150.202C181.683 150.259 181.683 150.316 181.683 150.378H181.706C182.035 149.65 182.877 149.059 183.992 149.059C185.556 149.059 186.717 150.214 186.717 151.772V151.783C186.717 153.399 185.488 154.57 183.81 154.57ZM181.927 151.772C181.927 152.824 182.746 153.66 183.799 153.66C184.845 153.66 185.676 152.841 185.676 151.806V151.795C185.676 150.725 184.896 149.958 183.816 149.958C182.741 149.958 181.927 150.72 181.927 151.766V151.772ZM188.849 148.775C188.485 148.775 188.201 148.49 188.201 148.126C188.201 147.762 188.485 147.478 188.849 147.478C189.213 147.478 189.498 147.762 189.498 148.126C189.498 148.49 189.213 148.775 188.849 148.775ZM188.849 153.177C188.485 153.177 188.201 152.892 188.201 152.528C188.201 152.164 188.485 151.88 188.849 151.88C189.213 151.88 189.498 152.164 189.498 152.528C189.498 152.892 189.213 153.177 188.849 153.177ZM193.86 154.57C191.972 154.57 190.851 152.938 190.851 150.333V150.322C190.851 147.717 191.972 146.09 193.86 146.09C195.748 146.09 196.88 147.717 196.88 150.322V150.333C196.88 152.938 195.748 154.57 193.86 154.57ZM193.86 153.677C195.111 153.677 195.851 152.392 195.851 150.333V150.322C195.851 148.263 195.111 146.989 193.86 146.989C192.609 146.989 191.881 148.263 191.881 150.322V150.333C191.881 152.392 192.609 153.677 193.86 153.677ZM201.157 154.57C199.269 154.57 198.148 152.938 198.148 150.333V150.322C198.148 147.717 199.269 146.09 201.157 146.09C203.046 146.09 204.178 147.717 204.178 150.322V150.333C204.178 152.938 203.046 154.57 201.157 154.57ZM201.157 153.677C202.409 153.677 203.148 152.392 203.148 150.333V150.322C203.148 148.263 202.409 146.989 201.157 146.989C199.906 146.989 199.178 148.263 199.178 150.322V150.333C199.178 152.392 199.906 153.677 201.157 153.677ZM207.692 154.434L210.747 146.226H211.759L214.808 154.434H213.733L212.902 152.085H209.598L208.767 154.434H207.692ZM211.241 147.455L209.91 151.215H212.595L211.264 147.455H211.241ZM215.985 154.434V146.226H217.168L220.012 153.143H220.046L222.89 146.226H224.073V154.434H223.117V148.092H223.083L220.461 154.434H219.597L216.974 148.092H216.94V154.434H215.985Z" fill="#181818" fill-opacity="0.48"/>
<path d="M30.3647 172.339V165.859H31.1505L34.6665 170.902H34.7383V165.859H35.5376V172.339H34.7518L31.2358 167.314H31.164V172.339H30.3647ZM38.9334 172.424C37.5548 172.424 36.7017 171.472 36.7017 169.923V169.914C36.7017 168.36 37.5548 167.413 38.9334 167.413C40.3119 167.413 41.1651 168.36 41.1651 169.914V169.923C41.1651 171.472 40.3119 172.424 38.9334 172.424ZM38.9334 171.732C39.8494 171.732 40.3658 171.063 40.3658 169.923V169.914C40.3658 168.769 39.8494 168.104 38.9334 168.104C38.0173 168.104 37.5009 168.769 37.5009 169.914V169.923C37.5009 171.063 38.0173 171.732 38.9334 171.732ZM43.4203 172.339L41.6287 167.498H42.4549L43.7796 171.485H43.8514L45.1761 167.498H46.0023L44.2106 172.339H43.4203ZM48.6841 172.424C47.3011 172.424 46.4659 171.454 46.4659 169.936V169.932C46.4659 168.436 47.319 167.413 48.6347 167.413C49.9504 167.413 50.7497 168.392 50.7497 169.837V170.143H47.2651C47.2876 171.144 47.8399 171.728 48.7021 171.728C49.3577 171.728 49.7618 171.418 49.892 171.126L49.91 171.086H50.6913L50.6823 171.122C50.5162 171.777 49.8247 172.424 48.6841 172.424ZM48.6302 168.109C47.9118 168.109 47.3639 168.598 47.2786 169.519H49.9549C49.8741 168.562 49.3442 168.109 48.6302 168.109ZM51.815 172.339V167.498H52.5963V168.234H52.6681C52.8837 167.713 53.3417 167.413 53.9748 167.413C54.6304 167.413 55.0885 167.758 55.313 168.261H55.3848C55.6453 167.749 56.1976 167.413 56.8666 167.413C57.8545 167.413 58.4069 167.978 58.4069 168.993V172.339H57.6255V169.173C57.6255 168.459 57.2977 168.104 56.6152 168.104C55.9416 168.104 55.4971 168.612 55.4971 169.227V172.339H54.7157V169.052C54.7157 168.477 54.3206 168.104 53.7099 168.104C53.0768 168.104 52.5963 168.656 52.5963 169.339V172.339H51.815ZM62.0765 172.424C61.403 172.424 60.8641 172.105 60.5678 171.566H60.4959V172.339H59.7146V165.576H60.4959V168.261H60.5678C60.8327 167.745 61.412 167.413 62.0765 167.413C63.3069 167.413 64.1062 168.396 64.1062 169.914V169.923C64.1062 171.432 63.3024 172.424 62.0765 172.424ZM61.8969 171.732C62.7815 171.732 63.3069 171.05 63.3069 169.923V169.914C63.3069 168.787 62.7815 168.104 61.8969 168.104C61.0168 168.104 60.478 168.796 60.478 169.914V169.923C60.478 171.041 61.0168 171.732 61.8969 171.732ZM67.1472 172.424C65.7642 172.424 64.929 171.454 64.929 169.936V169.932C64.929 168.436 65.7822 167.413 67.0978 167.413C68.4135 167.413 69.2128 168.392 69.2128 169.837V170.143H65.7283C65.7507 171.144 66.303 171.728 67.1652 171.728C67.8208 171.728 68.2249 171.418 68.3552 171.126L68.3731 171.086H69.1544L69.1455 171.122C68.9793 171.777 68.2878 172.424 67.1472 172.424ZM67.0934 168.109C66.3749 168.109 65.8271 168.598 65.7417 169.519H68.418C68.3372 168.562 67.8073 168.109 67.0934 168.109ZM70.2781 172.339V167.498H71.0594V168.216H71.1313C71.3154 167.709 71.7689 167.413 72.4245 167.413C72.5727 167.413 72.7388 167.431 72.8152 167.444V168.203C72.6535 168.176 72.5053 168.158 72.3347 168.158C71.5893 168.158 71.0594 168.629 71.0594 169.339V172.339H70.2781Z" fill="#181818" fill-opacity="0.48"/>
<path d="M122.155 172.339V171.782L124.347 169.411C125.173 168.517 125.415 168.18 125.415 167.615V167.606C125.415 166.923 124.953 166.411 124.19 166.411C123.413 166.411 122.896 166.919 122.896 167.682L122.892 167.691L122.12 167.687L122.111 167.682C122.115 166.532 123.004 165.706 124.244 165.706C125.375 165.706 126.242 166.474 126.242 167.52V167.529C126.242 168.27 125.923 168.809 124.751 170.017L123.278 171.539V171.611H126.349V172.339H122.155ZM127.558 172.339V171.782L129.75 169.411C130.576 168.517 130.818 168.18 130.818 167.615V167.606C130.818 166.923 130.356 166.411 129.593 166.411C128.816 166.411 128.299 166.919 128.299 167.682L128.295 167.691L127.523 167.687L127.514 167.682C127.518 166.532 128.407 165.706 129.646 165.706C130.778 165.706 131.645 166.474 131.645 167.52V167.529C131.645 168.27 131.326 168.809 130.154 170.017L128.681 171.539V171.611H131.752V172.339H127.558Z" fill="#181818" fill-opacity="0.48"/>
<path d="M185.815 172.339L188.725 166.645V166.582H185.258V165.859H189.546V166.609L186.664 172.339H185.815ZM191.187 167.942C190.868 167.942 190.603 167.678 190.603 167.359C190.603 167.035 190.868 166.775 191.187 166.775C191.51 166.775 191.77 167.035 191.77 167.359C191.77 167.678 191.51 167.942 191.187 167.942ZM191.187 171.418C190.868 171.418 190.603 171.153 190.603 170.834C190.603 170.511 190.868 170.251 191.187 170.251C191.51 170.251 191.77 170.511 191.77 170.834C191.77 171.153 191.51 171.418 191.187 171.418ZM195.296 172.491C193.864 172.491 193.011 171.185 193.011 169.101V169.092C193.011 167.008 193.864 165.706 195.296 165.706C196.729 165.706 197.591 167.008 197.591 169.092V169.101C197.591 171.185 196.729 172.491 195.296 172.491ZM195.296 171.786C196.226 171.786 196.778 170.753 196.778 169.101V169.092C196.778 167.44 196.226 166.416 195.296 166.416C194.367 166.416 193.823 167.44 193.823 169.092V169.101C193.823 170.753 194.367 171.786 195.296 171.786ZM200.942 172.491C199.509 172.491 198.656 171.185 198.656 169.101V169.092C198.656 167.008 199.509 165.706 200.942 165.706C202.374 165.706 203.236 167.008 203.236 169.092V169.101C203.236 171.185 202.374 172.491 200.942 172.491ZM200.942 171.786C201.871 171.786 202.424 170.753 202.424 169.101V169.092C202.424 167.44 201.871 166.416 200.942 166.416C200.012 166.416 199.469 167.44 199.469 169.092V169.101C199.469 170.753 200.012 171.786 200.942 171.786ZM206.445 172.339L208.833 165.859H209.633L212.022 172.339H211.173L210.522 170.484H207.944L207.293 172.339H206.445ZM209.197 166.905L208.182 169.797H210.284L209.269 166.905H209.197ZM213.011 172.339V165.859H213.949L216.167 171.265H216.239L218.457 165.859H219.396V172.339H218.642V167.39H218.592L216.544 172.339H215.862L213.814 167.39H213.765V172.339H213.011Z" fill="#181818" fill-opacity="0.48"/>
<g opacity="0.24">
<path d="M32.7952 189.243V183.628H34.7216C36.3872 183.628 37.3718 184.667 37.3718 186.43V186.437C37.3718 188.204 36.3911 189.243 34.7216 189.243H32.7952ZM33.4957 188.613H34.6749C35.928 188.613 36.6557 187.811 36.6557 186.445V186.437C36.6557 185.068 35.9202 184.258 34.6749 184.258H33.4957V188.613ZM40.1637 189.317C38.9651 189.317 38.2412 188.477 38.2412 187.161V187.157C38.2412 185.861 38.9806 184.974 40.1209 184.974C41.2611 184.974 41.9539 185.823 41.9539 187.076V187.34H38.9339C38.9534 188.208 39.4321 188.714 40.1793 188.714C40.7474 188.714 41.0977 188.445 41.2105 188.193L41.2261 188.158H41.9033L41.8955 188.189C41.7515 188.757 41.1522 189.317 40.1637 189.317ZM40.117 185.577C39.4943 185.577 39.0195 186.002 38.9456 186.799H41.265C41.195 185.97 40.7358 185.577 40.117 185.577ZM44.6718 189.317C43.4965 189.317 42.7454 188.465 42.7454 187.134V187.126C42.7454 185.823 43.4926 184.974 44.6679 184.974C45.6875 184.974 46.2985 185.562 46.423 186.309L46.4269 186.332H45.7537L45.7498 186.321C45.6447 185.908 45.2711 185.573 44.6679 185.573C43.9129 185.573 43.4381 186.181 43.4381 187.126V187.134C43.4381 188.099 43.9207 188.718 44.6679 188.718C45.2322 188.718 45.5902 188.469 45.7459 188.002L45.7537 187.978L46.423 187.975L46.4153 188.017C46.244 188.776 45.6797 189.317 44.6718 189.317ZM49.0787 189.317C47.8801 189.317 47.1562 188.477 47.1562 187.161V187.157C47.1562 185.861 47.8956 184.974 49.0359 184.974C50.1762 184.974 50.8689 185.823 50.8689 187.076V187.34H47.8489C47.8684 188.208 48.3471 188.714 49.0943 188.714C49.6625 188.714 50.0127 188.445 50.1256 188.193L50.1411 188.158H50.8183L50.8105 188.189C50.6665 188.757 50.0672 189.317 49.0787 189.317ZM49.032 185.577C48.4093 185.577 47.9346 186.002 47.8606 186.799H50.1801C50.11 185.97 49.6508 185.577 49.032 185.577ZM51.8706 189.243V185.048H52.5477V185.686H52.61C52.7968 185.235 53.1938 184.974 53.7425 184.974C54.3107 184.974 54.7076 185.274 54.9022 185.71H54.9645C55.1902 185.266 55.6689 184.974 56.2487 184.974C57.1049 184.974 57.5836 185.464 57.5836 186.344V189.243H56.9064V186.5C56.9064 185.881 56.6223 185.573 56.0308 185.573C55.447 185.573 55.0618 186.013 55.0618 186.546V189.243H54.3846V186.395C54.3846 185.896 54.0421 185.573 53.5129 185.573C52.9641 185.573 52.5477 186.052 52.5477 186.644V189.243H51.8706ZM60.8424 189.317C60.2587 189.317 59.7917 189.041 59.5348 188.574H59.4726V189.243H58.7954V183.382H59.4726V185.71H59.5348C59.7644 185.262 60.2665 184.974 60.8424 184.974C61.9088 184.974 62.6015 185.826 62.6015 187.142V187.15C62.6015 188.457 61.9049 189.317 60.8424 189.317ZM60.6868 188.718C61.4534 188.718 61.9088 188.126 61.9088 187.15V187.142C61.9088 186.165 61.4534 185.573 60.6868 185.573C59.924 185.573 59.457 186.173 59.457 187.142V187.15C59.457 188.119 59.924 188.718 60.6868 188.718ZM65.3155 189.317C64.1169 189.317 63.393 188.477 63.393 187.161V187.157C63.393 185.861 64.1325 184.974 65.2727 184.974C66.413 184.974 67.1057 185.823 67.1057 187.076V187.34H64.0858C64.1052 188.208 64.5839 188.714 65.3311 188.714C65.8993 188.714 66.2495 188.445 66.3624 188.193L66.3779 188.158H67.0551L67.0473 188.189C66.9033 188.757 66.304 189.317 65.3155 189.317ZM65.2688 185.577C64.6462 185.577 64.1714 186.002 64.0974 186.799H66.4169C66.3468 185.97 65.8876 185.577 65.2688 185.577ZM68.1074 189.243V185.048H68.7846V185.671H68.8468C69.0064 185.231 69.3994 184.974 69.9676 184.974C70.096 184.974 70.24 184.99 70.3062 185.001V185.659C70.1661 185.636 70.0377 185.62 69.8898 185.62C69.2438 185.62 68.7846 186.029 68.7846 186.644V189.243H68.1074Z" fill="#181818" fill-opacity="0.48"/>
<path d="M122.657 189.243V188.761L124.556 186.706C125.272 185.931 125.482 185.64 125.482 185.149V185.141C125.482 184.55 125.081 184.106 124.42 184.106C123.746 184.106 123.299 184.546 123.299 185.208L123.295 185.215L122.626 185.212L122.618 185.208C122.622 184.211 123.392 183.495 124.466 183.495C125.447 183.495 126.198 184.161 126.198 185.068V185.075C126.198 185.717 125.922 186.184 124.906 187.231L123.63 188.551V188.613H126.291V189.243H122.657ZM129.329 189.337C128.169 189.337 127.418 188.691 127.344 187.803L127.34 187.757H128.013L128.017 187.796C128.072 188.348 128.581 188.73 129.329 188.73C130.064 188.73 130.566 188.317 130.566 187.722V187.714C130.566 187.025 130.072 186.64 129.286 186.64H128.581V186.048H129.255C129.924 186.048 130.391 185.636 130.391 185.075V185.068C130.391 184.48 130.006 184.141 129.321 184.141C128.659 184.141 128.188 184.492 128.13 185.06L128.126 185.099H127.453L127.457 185.06C127.546 184.145 128.27 183.534 129.321 183.534C130.391 183.534 131.095 184.13 131.095 184.982V184.99C131.095 185.682 130.605 186.157 129.904 186.305V186.321C130.722 186.391 131.278 186.9 131.278 187.698V187.706C131.278 188.644 130.453 189.337 129.329 189.337Z" fill="#181818" fill-opacity="0.48"/>
<path d="M189.177 189.337C187.986 189.337 187.138 188.667 187.138 187.726V187.718C187.138 187.025 187.624 186.449 188.344 186.282V186.266C187.729 186.075 187.34 185.608 187.34 185.017V185.009C187.34 184.161 188.115 183.534 189.177 183.534C190.239 183.534 191.014 184.161 191.014 185.009V185.017C191.014 185.608 190.625 186.075 190.01 186.266V186.282C190.73 186.449 191.216 187.025 191.216 187.718V187.726C191.216 188.667 190.368 189.337 189.177 189.337ZM189.177 186.005C189.854 186.005 190.317 185.62 190.317 185.075V185.068C190.317 184.523 189.854 184.137 189.177 184.137C188.5 184.137 188.037 184.523 188.037 185.068V185.075C188.037 185.62 188.5 186.005 189.177 186.005ZM189.177 188.726C189.952 188.726 190.504 188.29 190.504 187.683V187.675C190.504 187.06 189.955 186.62 189.177 186.62C188.399 186.62 187.85 187.06 187.85 187.675V187.683C187.85 188.29 188.403 188.726 189.177 188.726ZM192.856 185.433C192.58 185.433 192.35 185.204 192.35 184.927C192.35 184.647 192.58 184.422 192.856 184.422C193.136 184.422 193.362 184.647 193.362 184.927C193.362 185.204 193.136 185.433 192.856 185.433ZM192.856 188.445C192.58 188.445 192.35 188.216 192.35 187.94C192.35 187.659 192.58 187.434 192.856 187.434C193.136 187.434 193.362 187.659 193.362 187.94C193.362 188.216 193.136 188.445 192.856 188.445ZM196.496 189.376C195.255 189.376 194.516 188.243 194.516 186.437V186.43C194.516 184.624 195.255 183.495 196.496 183.495C197.738 183.495 198.485 184.624 198.485 186.43V186.437C198.485 188.243 197.738 189.376 196.496 189.376ZM196.496 188.765C197.302 188.765 197.781 187.87 197.781 186.437V186.43C197.781 184.997 197.302 184.11 196.496 184.11C195.691 184.11 195.22 184.997 195.22 186.43V186.437C195.22 187.87 195.691 188.765 196.496 188.765ZM201.468 189.376C200.226 189.376 199.487 188.243 199.487 186.437V186.43C199.487 184.624 200.226 183.495 201.468 183.495C202.709 183.495 203.456 184.624 203.456 186.43V186.437C203.456 188.243 202.709 189.376 201.468 189.376ZM201.468 188.765C202.273 188.765 202.752 187.87 202.752 186.437V186.43C202.752 184.997 202.273 184.11 201.468 184.11C200.662 184.11 200.191 184.997 200.191 186.43V186.437C200.191 187.87 200.662 188.765 201.468 188.765ZM206.394 189.243L208.464 183.628H209.157L211.227 189.243H210.492L209.927 187.636H207.694L207.129 189.243H206.394ZM208.779 184.534L207.9 187.041H209.721L208.842 184.534H208.779ZM212.163 189.243V183.628H212.976L214.899 188.313H214.961L216.883 183.628H217.697V189.243H217.043V184.955H217L215.226 189.243H214.634L212.859 184.955H212.817V189.243H212.163Z" fill="#181818" fill-opacity="0.48"/>
</g>
<rect x="12.2617" y="210.41" width="229.295" height="29.4282" rx="14.7141" fill="#333333"/>
<path d="M110.275 221.433C111.157 221.433 112.138 221.855 112.609 222.414L111.942 223.307C111.481 222.836 110.804 222.542 110.186 222.542C109.558 222.542 109.117 222.856 109.117 223.317C109.117 224.778 112.776 223.935 112.776 226.416C112.776 227.515 111.854 228.496 110.324 228.496C109.274 228.496 108.205 227.986 107.606 227.319L108.342 226.475C108.872 226.985 109.48 227.387 110.324 227.387C111.079 227.387 111.599 227.005 111.599 226.426C111.599 225.004 107.959 225.906 107.959 223.405C107.959 222.287 108.921 221.433 110.275 221.433ZM118.23 225.789C118.23 225.916 118.22 226.112 118.191 226.259H114.542C114.66 227.034 115.189 227.505 115.964 227.505C116.504 227.505 116.994 227.27 117.22 226.897L118.093 227.456C117.74 228.104 116.935 228.496 115.945 228.496C114.562 228.496 113.453 227.407 113.453 225.975C113.453 224.582 114.542 223.503 115.925 223.503C117.22 223.503 118.23 224.503 118.23 225.789ZM114.581 225.426H117.083C117.024 224.827 116.523 224.405 115.866 224.405C115.209 224.405 114.748 224.798 114.581 225.426ZM121.791 227.387L121.85 228.349C121.693 228.427 121.468 228.466 121.262 228.466C120.202 228.466 119.457 227.79 119.457 226.603V224.641H118.534V223.601H119.457V222.316H120.545V223.601H121.801V224.641H120.545V226.554C120.545 227.113 120.938 227.446 121.418 227.446C121.536 227.446 121.693 227.417 121.791 227.387ZM127.183 221.531C129.135 221.531 130.616 222.973 130.616 224.935C130.616 226.917 129.135 228.398 127.183 228.398H124.927V221.531H127.183ZM127.261 227.299C128.507 227.299 129.439 226.289 129.439 224.935C129.439 223.591 128.517 222.63 127.261 222.63H126.074V227.299H127.261ZM135.087 223.601H136.176V228.398H135.087V227.75C134.832 228.182 134.195 228.496 133.557 228.496C132.262 228.496 131.252 227.397 131.252 225.995C131.252 224.602 132.262 223.503 133.557 223.503C134.195 223.503 134.832 223.817 135.087 224.248V223.601ZM133.783 227.456C134.322 227.456 134.852 227.152 135.087 226.74V225.269C134.852 224.847 134.332 224.543 133.783 224.543C132.959 224.543 132.331 225.161 132.331 225.995C132.331 226.828 132.959 227.456 133.783 227.456ZM140.117 227.387L140.176 228.349C140.019 228.427 139.793 228.466 139.587 228.466C138.528 228.466 137.782 227.79 137.782 226.603V224.641H136.86V223.601H137.782V222.316H138.871V223.601H140.127V224.641H138.871V226.554C138.871 227.113 139.263 227.446 139.744 227.446C139.862 227.446 140.019 227.417 140.117 227.387ZM145.321 225.789C145.321 225.916 145.311 226.112 145.282 226.259H141.633C141.75 227.034 142.28 227.505 143.055 227.505C143.595 227.505 144.085 227.27 144.311 226.897L145.184 227.456C144.831 228.104 144.026 228.496 143.036 228.496C141.652 228.496 140.544 227.407 140.544 225.975C140.544 224.582 141.633 223.503 143.016 223.503C144.311 223.503 145.321 224.503 145.321 225.789ZM141.672 225.426H144.173C144.115 224.827 143.614 224.405 142.957 224.405C142.3 224.405 141.839 224.798 141.672 225.426Z" fill="white"/>
<rect x="85.8281" y="253.94" width="82.1539" height="3.06544" rx="1.53272" fill="black"/>
</g>
<defs>
<filter id="filter0_dd_375_8161" x="-19.6188" y="-6.5293" width="293.058" height="82.1539" filterUnits="userSpaceOnUse" color-interpolation-filters="sRGB">
<feFlood flood-opacity="0" result="BackgroundImageFix"/>
<feColorMatrix in="SourceAlpha" type="matrix" values="0 0 0 0 0 0 0 0 0 0 0 0 0 0 0 0 0 0 127 0" result="hardAlpha"/>
<feOffset dy="1.22618"/>
<feGaussianBlur stdDeviation="2.45235"/>
<feComposite in2="hardAlpha" operator="out"/>
<feColorMatrix type="matrix" values="0 0 0 0 0.14902 0 0 0 0 0.14902 0 0 0 0 0.14902 0 0 0 0.08 0"/>
<feBlend mode="normal" in2="BackgroundImageFix" result="effect1_dropShadow_375_8161"/>
<feColorMatrix in="SourceAlpha" type="matrix" values="0 0 0 0 0 0 0 0 0 0 0 0 0 0 0 0 0 0 127 0" result="hardAlpha"/>
<feOffset dy="12.2618"/>
<feGaussianBlur stdDeviation="9.80942"/>
<feComposite in2="hardAlpha" operator="out"/>
<feColorMatrix type="matrix" values="0 0 0 0 0.14902 0 0 0 0 0.14902 0 0 0 0 0.14902 0 0 0 0.24 0"/>
<feBlend mode="normal" in2="effect1_dropShadow_375_8161" result="effect2_dropShadow_375_8161"/>
<feBlend mode="normal" in="SourceGraphic" in2="effect2_dropShadow_375_8161" result="shape"/>
</filter>
<clipPath id="clip0_375_8161">
<rect width="253.819" height="261.082" fill="white" transform="translate(0 0.827759)"/>
</clipPath>
</defs>
</svg>
