<svg width="611" height="79" viewBox="0 0 611 79" fill="none" xmlns="http://www.w3.org/2000/svg">
<rect x="31.8086" y="19.2329" width="14.6466" height="20.5052" fill="#B8CEDC"/>
<rect width="14.6466" height="4.39398" transform="matrix(1 0 0 -1 31.8086 47.0615)" fill="#B8CEDC"/>
<rect x="49.3848" y="19.2329" width="10.2526" height="7.3233" fill="#B8CEDC"/>
<rect x="59.6387" y="47.0615" width="10.2526" height="17.5759" transform="rotate(-180 59.6387 47.0615)" fill="#B8CEDC"/>
<rect x="30.0637" y="17.4864" width="14.4782" height="21.0691" stroke="#184363" stroke-width="0.900766"/>
<rect x="0.450383" y="-0.450383" width="14.4782" height="4.95788" transform="matrix(1 0 0 -1 29.6133 45.4285)" stroke="#184363" stroke-width="0.900766"/>
<rect x="47.6379" y="17.4864" width="10.8165" height="7.8872" stroke="#184363" stroke-width="0.900766"/>
<rect x="47.6379" y="27.7387" width="10.8165" height="18.1398" stroke="#184363" stroke-width="0.900766"/>
<path d="M26.0702 60.2771V61.2306H23.7693V67.5321H22.764V61.2306H20.4631V60.2771H26.0702ZM30.4715 64.7856C30.4715 64.8996 30.4612 65.0551 30.4508 65.1794H26.4087C26.502 66.1537 27.1653 66.7755 28.0981 66.7755C28.7407 66.7755 29.3107 66.4853 29.5698 66.0293L30.3368 66.5268C29.9533 67.2108 29.1034 67.6358 28.067 67.6358C26.6263 67.6358 25.4759 66.4957 25.4759 64.9825C25.4759 63.5211 26.6056 62.3707 28.0566 62.3707C29.4144 62.3707 30.4715 63.4279 30.4715 64.7856ZM26.4502 64.4539H29.4869C29.4247 63.6973 28.8132 63.1687 28.0152 63.1687C27.2171 63.1687 26.6263 63.6766 26.4502 64.4539ZM37.4013 62.3707C38.6347 62.3707 39.4638 63.1895 39.4638 64.4747V67.5321H38.5103V64.6405C38.5103 63.7906 38.0232 63.262 37.2458 63.262C36.7172 63.262 36.1887 63.6248 35.9296 64.0601C35.9503 64.1534 35.9607 64.257 35.971 64.3606V67.5321H35.0175V64.6405C35.0175 63.7906 34.52 63.262 33.7738 63.262C33.2037 63.262 32.727 63.5833 32.4886 64.0497V67.5321H31.5247V62.4743H32.4886V63.1895C32.7373 62.8267 33.2452 62.3707 34.0743 62.3707C34.8206 62.3707 35.3595 62.6713 35.6808 63.2724C36.0228 62.8164 36.6343 62.3707 37.4013 62.3707ZM43.4492 62.3707C44.8484 62.3707 45.9159 63.5211 45.9159 65.0032C45.9159 66.4853 44.8484 67.6358 43.4492 67.6358C42.7444 67.6358 42.0293 67.273 41.7598 66.7963V69.377H40.7959V62.4743H41.7598V63.2102C42.0397 62.7334 42.7444 62.3707 43.4492 62.3707ZM43.2627 66.7341C44.2369 66.7341 44.9831 65.9982 44.9831 65.0032C44.9831 64.0186 44.2369 63.2724 43.2627 63.2724C42.6408 63.2724 42.0293 63.6248 41.7598 64.1119V65.8842C42.0293 66.3817 42.6408 66.7341 43.2627 66.7341ZM47.9339 60.2771V67.5321H46.97V60.2771H47.9339ZM53.0328 62.4743H53.9966V67.5321H53.0328V66.7963C52.7529 67.273 52.0481 67.6358 51.3434 67.6358C49.9442 67.6358 48.8766 66.4853 48.8766 65.0032C48.8766 63.5211 49.9442 62.3707 51.3434 62.3707C52.0585 62.3707 52.7633 62.7334 53.0328 63.2102V62.4743ZM51.5299 66.7341C52.1518 66.7341 52.7633 66.3817 53.0328 65.8946V64.1223C52.7633 63.6248 52.1518 63.2724 51.5299 63.2724C50.5557 63.2724 49.8094 64.0083 49.8094 65.0032C49.8094 65.9878 50.5557 66.7341 51.5299 66.7341ZM58.0978 66.6512L58.1497 67.4907C58.0046 67.5529 57.7973 67.5943 57.6003 67.5943C56.5328 67.5943 55.7762 66.9103 55.7762 65.708V63.3864H54.7916V62.4743H55.7762V61.1062H56.7297V62.4743H58.0978V63.3864H56.7297V65.6666C56.7297 66.3195 57.165 66.703 57.7247 66.703C57.8387 66.703 57.9942 66.6823 58.0978 66.6512ZM63.5483 64.7856C63.5483 64.8996 63.538 65.0551 63.5276 65.1794H59.4855C59.5788 66.1537 60.2421 66.7755 61.1749 66.7755C61.8175 66.7755 62.3875 66.4853 62.6467 66.0293L63.4136 66.5268C63.0301 67.2108 62.1803 67.6358 61.1438 67.6358C59.7032 67.6358 58.5527 66.4957 58.5527 64.9825C58.5527 63.5211 59.6824 62.3707 61.1335 62.3707C62.4912 62.3707 63.5483 63.4279 63.5483 64.7856ZM59.527 64.4539H62.5637C62.5016 63.6973 61.8901 63.1687 61.092 63.1687C60.2939 63.1687 59.7032 63.6766 59.527 64.4539ZM66.3331 67.6358C65.5454 67.6358 64.7163 67.3456 64.2292 66.9103L64.623 66.1951C65.0168 66.5786 65.7423 66.8377 66.3228 66.8377C66.9135 66.8377 67.3074 66.5372 67.3074 66.1537C67.3074 65.024 64.3846 65.7806 64.3846 63.915C64.3846 62.9926 65.1619 62.3707 66.302 62.3707C66.9861 62.3707 67.7012 62.5883 68.1365 63.0133L67.7219 63.7388C67.3488 63.376 66.6648 63.1791 66.2087 63.1791C65.6802 63.1791 65.3381 63.4382 65.3381 63.8321C65.3381 64.8581 68.2712 64.2052 68.2712 66.1226C68.2712 66.9932 67.4836 67.6358 66.3331 67.6358Z" fill="#9D9D9D"/>
<path d="M122.398 19.4943H98.0117V25.6152H106.407V44.1822H114.331V25.6152H122.398V19.4943Z" fill="url(#paint0_linear_374_8061)"/>
<path fill-rule="evenodd" clip-rule="evenodd" d="M96.2891 19.4943C96.2891 19.249 96.4879 19.0501 96.7332 19.0501H121.119C121.364 19.0501 121.563 19.249 121.563 19.4943V25.6152C121.563 25.8605 121.364 26.0594 121.119 26.0594H113.497V44.1822C113.497 44.4275 113.298 44.6264 113.053 44.6264H105.128C104.883 44.6264 104.684 44.4275 104.684 44.1822V26.0594H96.7332C96.4879 26.0594 96.2891 25.8605 96.2891 25.6152V19.4943ZM97.1774 19.9385V25.171H105.128C105.374 25.171 105.573 25.3699 105.573 25.6152V43.738H112.608V25.6152C112.608 25.3699 112.807 25.171 113.053 25.171H120.675V19.9385H97.1774Z" fill="#171717"/>
<path d="M105.736 60.2771V61.2306H103.435V67.5321H102.43V61.2306H100.129V60.2771H105.736ZM110.137 64.7856C110.137 64.8996 110.127 65.0551 110.116 65.1794H106.074C106.168 66.1537 106.831 66.7755 107.764 66.7755C108.406 66.7755 108.976 66.4853 109.235 66.0293L110.002 66.5268C109.619 67.2108 108.769 67.6358 107.733 67.6358C106.292 67.6358 105.142 66.4957 105.142 64.9825C105.142 63.5211 106.271 62.3707 107.722 62.3707C109.08 62.3707 110.137 63.4279 110.137 64.7856ZM106.116 64.4539H109.153C109.09 63.6973 108.479 63.1687 107.681 63.1687C106.883 63.1687 106.292 63.6766 106.116 64.4539ZM115.282 67.5321H114.132L112.826 65.7184L111.52 67.5321H110.39L112.266 64.9203L110.504 62.4743H111.644L112.836 64.1223L114.018 62.4743H115.158L113.406 64.9203L115.282 67.5321ZM118.917 66.6512L118.969 67.4907C118.824 67.5529 118.617 67.5943 118.42 67.5943C117.352 67.5943 116.596 66.9103 116.596 65.708V63.3864H115.611V62.4743H116.596V61.1062H117.549V62.4743H118.917V63.3864H117.549V65.6666C117.549 66.3195 117.985 66.703 118.544 66.703C118.658 66.703 118.814 66.6823 118.917 66.6512Z" fill="#9D9D9D"/>
<path d="M175.452 19.209L171.383 27.382L162.375 28.6524L168.931 35.0575L167.377 44.0212L175.443 39.7925L183.5 44.0212L181.972 35.0664L188.502 28.6879L179.485 27.3731L175.452 19.209Z" fill="url(#paint1_linear_374_8061)"/>
<path fill-rule="evenodd" clip-rule="evenodd" d="M174.002 19.2267C174.171 19.227 174.325 19.3229 174.4 19.4742L178.33 27.4292L187.116 28.7103C187.283 28.7347 187.422 28.8518 187.474 29.0124C187.526 29.1731 187.483 29.3495 187.362 29.4676L180.999 35.6833L182.488 44.4084C182.516 44.575 182.448 44.7432 182.311 44.8425C182.175 44.9418 181.993 44.955 181.844 44.8765L173.993 40.7561L166.132 44.8765C165.983 44.9551 165.801 44.9417 165.665 44.8421C165.528 44.7425 165.46 44.5739 165.489 44.4072L167.003 35.6739L160.614 29.432C160.493 29.3137 160.45 29.1368 160.503 28.9759C160.555 28.815 160.695 28.6981 160.863 28.6745L169.639 27.4367L173.604 19.4729C173.679 19.3219 173.833 19.2265 174.002 19.2267ZM174 20.6707L170.33 28.0419C170.265 28.1729 170.14 28.2633 169.995 28.2838L161.881 29.428L167.791 35.2017C167.896 35.304 167.944 35.4512 167.919 35.5954L166.518 43.6715L173.786 39.8611C173.916 39.7933 174.07 39.7934 174.199 39.8612L181.461 43.6724L180.084 35.6031C180.06 35.4592 180.107 35.3126 180.212 35.2106L186.099 29.4598L177.971 28.2746C177.826 28.2535 177.701 28.1627 177.636 28.0318L174 20.6707Z" fill="#171717"/>
<path d="M159.561 60.1735C160.473 60.1735 161.468 60.588 161.934 61.1581L161.344 61.9354C160.888 61.4379 160.183 61.1373 159.489 61.1373C158.722 61.1373 158.172 61.5415 158.172 62.1116C158.172 63.8632 162.142 62.8682 162.142 65.4904C162.142 66.6408 161.168 67.6358 159.613 67.6358C158.514 67.6358 157.467 67.1383 156.835 66.4853L157.467 65.7391C158.027 66.2677 158.711 66.6719 159.613 66.6719C160.494 66.6719 161.116 66.1951 161.116 65.5007C161.116 63.8113 157.167 64.8374 157.167 62.1841C157.167 61.0337 158.172 60.1735 159.561 60.1735ZM165.726 66.6512L165.778 67.4907C165.633 67.5529 165.425 67.5943 165.228 67.5943C164.161 67.5943 163.404 66.9103 163.404 65.708V63.3864H162.42V62.4743H163.404V61.1062H164.358V62.4743H165.726V63.3864H164.358V65.6666C164.358 66.3195 164.793 66.703 165.353 66.703C165.467 66.703 165.622 66.6823 165.726 66.6512ZM167.241 60.2045C167.583 60.2045 167.884 60.5051 167.884 60.8471C167.884 61.1995 167.583 61.4897 167.241 61.4897C166.889 61.4897 166.598 61.1995 166.598 60.8471C166.598 60.5051 166.889 60.2045 167.241 60.2045ZM166.754 62.4743H167.718V67.5321H166.754V62.4743ZM173.695 66.2884C173.301 67.1072 172.43 67.6358 171.394 67.6358C169.912 67.6358 168.772 66.4957 168.772 65.0136C168.772 63.5211 169.912 62.3707 171.394 62.3707C172.368 62.3707 173.197 62.8578 173.55 63.604L172.731 64.0497C172.524 63.5833 172.005 63.2828 171.394 63.2828C170.43 63.2828 169.705 64.0394 169.705 65.0136C169.705 65.9775 170.43 66.7237 171.394 66.7237C172.047 66.7237 172.596 66.4232 172.855 65.9049L173.695 66.2884ZM179.057 67.5321H177.803L175.461 65.1172V67.5321H174.497V60.2771H175.461V64.6923L177.699 62.4743H178.891L176.414 64.8996L179.057 67.5321ZM184.162 64.7856C184.162 64.8996 184.152 65.0551 184.141 65.1794H180.099C180.193 66.1537 180.856 66.7755 181.789 66.7755C182.431 66.7755 183.001 66.4853 183.26 66.0293L184.027 66.5268C183.644 67.2108 182.794 67.6358 181.758 67.6358C180.317 67.6358 179.167 66.4957 179.167 64.9825C179.167 63.5211 180.296 62.3707 181.747 62.3707C183.105 62.3707 184.162 63.4279 184.162 64.7856ZM180.141 64.4539H183.178C183.115 63.6973 182.504 63.1687 181.706 63.1687C180.908 63.1687 180.317 63.6766 180.141 64.4539ZM187.506 62.3707C187.734 62.3707 187.92 62.4121 188.066 62.4536L188.014 63.3553C187.848 63.2931 187.63 63.262 187.444 63.262C187.029 63.262 186.48 63.5937 186.179 64.1637V67.5321H185.215V62.4743H186.179V63.2102C186.459 62.7024 187.019 62.3707 187.506 62.3707ZM190.52 67.6358C189.732 67.6358 188.903 67.3456 188.416 66.9103L188.81 66.1951C189.203 66.5786 189.929 66.8377 190.509 66.8377C191.1 66.8377 191.494 66.5372 191.494 66.1537C191.494 65.024 188.571 65.7806 188.571 63.915C188.571 62.9926 189.349 62.3707 190.489 62.3707C191.173 62.3707 191.888 62.5883 192.323 63.0133L191.909 63.7388C191.535 63.376 190.851 63.1791 190.395 63.1791C189.867 63.1791 189.525 63.4382 189.525 63.8321C189.525 64.8581 192.458 64.2052 192.458 66.1226C192.458 66.9932 191.67 67.6358 190.52 67.6358Z" fill="#9D9D9D"/>
<path d="M231.589 22.3813H235.306L237.154 19.654H243.985L245.842 22.3813H249.823C251.623 22.3813 253.082 23.8405 253.081 25.64L253.074 41.5034C253.074 43.3018 251.616 44.7594 249.817 44.7594H231.589C229.79 44.7594 228.332 43.3011 228.332 41.5021V25.6387C228.332 23.8397 229.79 22.3813 231.589 22.3813Z" fill="url(#paint2_linear_374_8061)"/>
<path d="M245.386 32.3486C245.386 35.7193 242.653 38.4517 239.283 38.4517C235.912 38.4517 233.18 35.7193 233.18 32.3486C233.18 28.978 235.912 26.2455 239.283 26.2455C242.653 26.2455 245.386 28.978 245.386 32.3486Z" fill="white"/>
<path fill-rule="evenodd" clip-rule="evenodd" d="M239.286 26.6897C236.16 26.6897 233.627 29.2233 233.627 32.3487C233.627 35.474 236.16 38.0076 239.286 38.0076C242.411 38.0076 244.945 35.474 244.945 32.3487C244.945 29.2233 242.411 26.6897 239.286 26.6897ZM232.738 32.3487C232.738 28.7327 235.67 25.8014 239.286 25.8014C242.902 25.8014 245.833 28.7327 245.833 32.3487C245.833 35.9646 242.902 38.896 239.286 38.896C235.67 38.896 232.738 35.9646 232.738 32.3487Z" fill="#171717"/>
<path fill-rule="evenodd" clip-rule="evenodd" d="M235.229 18.4812H242.531L244.388 21.2085H249.438C250.763 21.2085 251.837 22.2829 251.837 23.608L251.83 42.0773C251.829 43.4016 250.755 44.4749 249.431 44.4749H228.598C227.273 44.4749 226.199 43.4011 226.199 42.0763V23.6071C226.199 22.2824 227.273 21.2085 228.598 21.2085H233.382L235.229 18.4812ZM235.701 19.3695L233.853 22.0968H228.598C227.764 22.0968 227.088 22.773 227.088 23.6071V42.0763C227.088 42.9104 227.764 43.5866 228.598 43.5866H249.431C250.265 43.5866 250.941 42.9108 250.941 42.0769L250.948 23.6077C250.949 22.7734 250.273 22.0968 249.438 22.0968H243.918L242.062 19.3695H235.701Z" fill="#171717"/>
<ellipse cx="247.342" cy="25.6237" rx="1.15488" ry="1.15488" fill="#171717"/>
<path d="M226.809 60.2771H227.877L229.981 65.9671L232.085 60.2771H233.132L230.395 67.5321H229.556L226.809 60.2771ZM234.191 60.2045C234.533 60.2045 234.834 60.5051 234.834 60.8471C234.834 61.1995 234.533 61.4897 234.191 61.4897C233.839 61.4897 233.548 61.1995 233.548 60.8471C233.548 60.5051 233.839 60.2045 234.191 60.2045ZM233.704 62.4743H234.668V67.5321H233.704V62.4743ZM239.878 60.2771H240.842V67.5321H239.878V66.7963C239.598 67.273 238.893 67.6358 238.189 67.6358C236.789 67.6358 235.722 66.4853 235.722 65.0032C235.722 63.5211 236.789 62.3707 238.189 62.3707C238.904 62.3707 239.608 62.7334 239.878 63.2102V60.2771ZM238.375 66.7341C238.997 66.7341 239.608 66.3817 239.878 65.8946V64.1223C239.608 63.6248 238.997 63.2724 238.375 63.2724C237.401 63.2724 236.655 64.0083 236.655 65.0032C236.655 65.9878 237.401 66.7341 238.375 66.7341ZM246.78 64.7856C246.78 64.8996 246.77 65.0551 246.759 65.1794H242.717C242.811 66.1537 243.474 66.7755 244.407 66.7755C245.049 66.7755 245.619 66.4853 245.879 66.0293L246.645 66.5268C246.262 67.2108 245.412 67.6358 244.376 67.6358C242.935 67.6358 241.785 66.4957 241.785 64.9825C241.785 63.5211 242.914 62.3707 244.365 62.3707C245.723 62.3707 246.78 63.4279 246.78 64.7856ZM242.759 64.4539H245.796C245.733 63.6973 245.122 63.1687 244.324 63.1687C243.526 63.1687 242.935 63.6766 242.759 64.4539ZM250.064 62.3707C251.526 62.3707 252.676 63.5211 252.676 65.0136C252.676 66.4957 251.526 67.6358 250.064 67.6358C248.593 67.6358 247.453 66.4957 247.453 65.0136C247.453 63.5211 248.593 62.3707 250.064 62.3707ZM250.064 63.2828C249.111 63.2828 248.385 64.029 248.385 65.0136C248.385 65.9775 249.111 66.7237 250.064 66.7237C251.008 66.7237 251.743 65.9775 251.743 65.0136C251.743 64.029 251.008 63.2828 250.064 63.2828Z" fill="#9D9D9D"/>
<rect x="294.98" y="37.9541" width="18.9756" height="5.36577" fill="url(#paint3_linear_374_8061)"/>
<path fill-rule="evenodd" clip-rule="evenodd" d="M302.502 29.9618C302.666 29.7784 302.65 29.4964 302.466 29.333C302.283 29.1708 302.003 29.1868 301.84 29.3689L300.479 30.8883C300.315 31.0717 300.331 31.3538 300.515 31.5172C300.698 31.6794 300.978 31.6633 301.141 31.4812L302.502 29.9618ZM304.761 29.7197C304.947 29.8841 304.962 30.1683 304.795 30.3514L301.17 34.3254C301.007 34.5049 300.729 34.5196 300.547 34.3585C300.362 34.1941 300.347 33.9098 300.514 33.7267L304.138 29.7527C304.302 29.5732 304.58 29.5585 304.761 29.7197ZM305.144 31.7597C305.329 31.9239 305.345 32.2076 305.178 32.3908L303.394 34.3553C303.231 34.5354 302.953 34.5504 302.771 34.389C302.586 34.2248 302.57 33.9411 302.737 33.7579L304.521 31.7934C304.684 31.6133 304.962 31.5983 305.144 31.7597Z" fill="#AAD695"/>
<path fill-rule="evenodd" clip-rule="evenodd" d="M295.602 19.9203H315.448V43.7643H295.602V19.9203ZM296.49 38.4251V42.8759H314.559V38.4251H296.49ZM296.49 37.5368H314.559V20.8087H296.49V37.5368ZM297.608 21.324H313.262V36.9771H297.608V21.324ZM298.497 22.2123V36.0887H312.373V22.2123H298.497Z" fill="#171717"/>
<path d="M292.433 60.2771C293.707 60.2771 294.661 61.1995 294.661 62.4329C294.661 63.6662 293.707 64.599 292.433 64.599H290.65V67.5321H289.645V60.2771H292.433ZM292.433 63.6455C293.127 63.6455 293.666 63.1169 293.666 62.4329C293.666 61.7488 293.127 61.2306 292.433 61.2306H290.65V63.6455H292.433ZM298.287 62.3707C299.541 62.3707 300.36 63.262 300.36 64.6405V67.5321H299.407V64.7752C299.407 63.8839 298.868 63.3138 298.07 63.3138C297.479 63.3138 296.94 63.6248 296.639 64.1119V67.5321H295.675V60.2771H296.639V63.1998C296.971 62.7024 297.603 62.3707 298.287 62.3707ZM304.03 62.3707C305.491 62.3707 306.642 63.5211 306.642 65.0136C306.642 66.4957 305.491 67.6358 304.03 67.6358C302.558 67.6358 301.418 66.4957 301.418 65.0136C301.418 63.5211 302.558 62.3707 304.03 62.3707ZM304.03 63.2828C303.076 63.2828 302.351 64.029 302.351 65.0136C302.351 65.9775 303.076 66.7237 304.03 66.7237C304.973 66.7237 305.709 65.9775 305.709 65.0136C305.709 64.029 304.973 63.2828 304.03 63.2828ZM310.315 66.6512L310.367 67.4907C310.222 67.5529 310.015 67.5943 309.818 67.5943C308.75 67.5943 307.994 66.9103 307.994 65.708V63.3864H307.009V62.4743H307.994V61.1062H308.947V62.4743H310.315V63.3864H308.947V65.6666C308.947 66.3195 309.383 66.703 309.942 66.703C310.056 66.703 310.212 66.6823 310.315 66.6512ZM313.382 62.3707C314.843 62.3707 315.994 63.5211 315.994 65.0136C315.994 66.4957 314.843 67.6358 313.382 67.6358C311.91 67.6358 310.77 66.4957 310.77 65.0136C310.77 63.5211 311.91 62.3707 313.382 62.3707ZM313.382 63.2828C312.428 63.2828 311.703 64.029 311.703 65.0136C311.703 65.9775 312.428 66.7237 313.382 66.7237C314.325 66.7237 315.061 65.9775 315.061 65.0136C315.061 64.029 314.325 63.2828 313.382 63.2828ZM318.783 67.6358C317.996 67.6358 317.167 67.3456 316.679 66.9103L317.073 66.1951C317.467 66.5786 318.193 66.8377 318.773 66.8377C319.364 66.8377 319.758 66.5372 319.758 66.1537C319.758 65.024 316.835 65.7806 316.835 63.915C316.835 62.9926 317.612 62.3707 318.752 62.3707C319.436 62.3707 320.151 62.5883 320.587 63.0133L320.172 63.7388C319.799 63.376 319.115 63.1791 318.659 63.1791C318.13 63.1791 317.788 63.4382 317.788 63.8321C317.788 64.8581 320.722 64.2052 320.722 66.1226C320.722 66.9932 319.934 67.6358 318.783 67.6358Z" fill="#9D9D9D"/>
<path d="M366.552 38.0094C365.581 40.403 366.65 42.2994 366.936 43.4217C364.344 42.1548 364.028 39.0759 364.097 37.1456C364.143 35.8187 364.97 33.9471 362.482 35.6597C359.759 37.5342 358.556 36.2242 358.077 34.2651C357.597 32.306 359.32 30.1209 359.381 30.7096C359.441 31.2983 359.209 33.0316 359.95 33.9515C360.806 33.0198 362.201 31.2937 364.721 31.7822C368.171 32.451 367.26 36.2656 366.552 38.0094Z" fill="url(#paint4_linear_374_8061)"/>
<path d="M367.479 41.1396C366.87 38.3035 368.321 37.4611 368.99 37.4575L369.783 38.5L371.059 38.8672C371.558 41.2892 368.05 43.3669 366.284 43.2091C366.741 43.0216 367.666 42.0125 367.479 41.1396Z" fill="#55B5E6"/>
<path fill-rule="evenodd" clip-rule="evenodd" d="M381.534 19.8457C381.002 19.5387 380.323 19.7041 379.992 20.2211L369.139 37.168C368.984 37.4094 368.911 37.6765 368.911 37.9393C368.514 38.015 368.082 38.2433 367.756 38.6941C367.347 39.2575 367.141 40.1133 367.283 41.3334C367.322 41.6614 367.224 42.0324 367.052 42.3534C366.968 42.511 366.871 42.6449 366.778 42.7449C366.68 42.8497 366.607 42.896 366.574 42.9095C366.384 42.9872 366.273 43.1844 366.303 43.3869C366.334 43.5893 366.499 43.7446 366.703 43.7629C367.676 43.8498 369.12 43.5941 370.297 42.9305C371.473 42.2673 372.463 41.1405 372.328 39.4805C372.476 39.3609 372.602 39.2102 372.695 39.0326L381.977 21.3753C382.264 20.8293 382.068 20.1541 381.534 19.8457ZM371.452 39.802C371.267 39.806 371.079 39.7743 370.897 39.7033L369.826 39.2845C369.561 39.1808 369.346 39.0091 369.192 38.7987C368.989 38.8059 368.699 38.9058 368.475 39.2155C368.241 39.5387 368.039 40.145 368.166 41.2304C368.231 41.7891 368.066 42.3437 367.835 42.7733C367.823 42.7951 367.812 42.8166 367.799 42.8379C368.462 42.7439 369.211 42.523 369.86 42.1567C370.785 41.6351 371.441 40.8669 371.452 39.802ZM380.74 20.7002C380.815 20.5829 380.969 20.5455 381.09 20.6151C381.211 20.685 381.255 20.8381 381.19 20.9619L371.909 38.6192C371.778 38.8676 371.482 38.9781 371.221 38.8759L370.15 38.4571C369.826 38.3306 369.699 37.9397 369.887 37.6471L380.74 20.7002Z" fill="#171717"/>
<path d="M361.812 60.2771C363.087 60.2771 364.04 61.1995 364.04 62.4329C364.04 63.6662 363.087 64.599 361.812 64.599H360.029V67.5321H359.024V60.2771H361.812ZM361.812 63.6455C362.506 63.6455 363.045 63.1169 363.045 62.4329C363.045 61.7488 362.506 61.2306 361.812 61.2306H360.029V63.6455H361.812ZM368.536 62.4743H369.5V67.5321H368.536V66.7963C368.256 67.273 367.552 67.6358 366.847 67.6358C365.448 67.6358 364.38 66.4853 364.38 65.0032C364.38 63.5211 365.448 62.3707 366.847 62.3707C367.562 62.3707 368.267 62.7334 368.536 63.2102V62.4743ZM367.033 66.7341C367.655 66.7341 368.267 66.3817 368.536 65.8946V64.1223C368.267 63.6248 367.655 63.2724 367.033 63.2724C366.059 63.2724 365.313 64.0083 365.313 65.0032C365.313 65.9878 366.059 66.7341 367.033 66.7341ZM371.311 60.2045C371.653 60.2045 371.953 60.5051 371.953 60.8471C371.953 61.1995 371.653 61.4897 371.311 61.4897C370.958 61.4897 370.668 61.1995 370.668 60.8471C370.668 60.5051 370.958 60.2045 371.311 60.2045ZM370.824 62.4743H371.788V67.5321H370.824V62.4743ZM375.723 62.3707C376.987 62.3707 377.796 63.262 377.796 64.6405V67.5321H376.842V64.7752C376.842 63.8839 376.314 63.3138 375.505 63.3138C374.925 63.3138 374.355 63.6248 374.075 64.1223V67.5321H373.111V62.4743H374.075V63.2102C374.386 62.7024 375.039 62.3707 375.723 62.3707ZM381.658 66.6512L381.71 67.4907C381.565 67.5529 381.357 67.5943 381.161 67.5943C380.093 67.5943 379.336 66.9103 379.336 65.708V63.3864H378.352V62.4743H379.336V61.1062H380.29V62.4743H381.658V63.3864H380.29V65.6666C380.29 66.3195 380.725 66.703 381.285 66.703C381.399 66.703 381.554 66.6823 381.658 66.6512Z" fill="#9D9D9D"/>
<path d="M430.23 41.5695C425.024 37.6251 431.906 25.0102 435.791 19.4224C437.411 21.6877 441.262 27.1956 443.156 33.6186C445.501 41.5695 436.819 46.5619 430.23 41.5695Z" fill="url(#paint5_linear_374_8061)"/>
<path fill-rule="evenodd" clip-rule="evenodd" d="M434.488 19.3443L434.855 19.8567C436.477 22.1254 440.367 27.6854 442.284 34.1856C443.514 38.3546 441.849 41.7992 438.974 43.5215C436.111 45.2362 432.097 45.2175 428.664 42.6162C427.216 41.5192 426.642 39.8364 426.614 37.9298C426.587 36.0291 427.1 33.8505 427.885 31.6552C429.458 27.2605 432.173 22.6742 434.129 19.8615L434.488 19.3443ZM434.5 20.8911C432.61 23.6894 430.166 27.9188 428.722 31.9546C427.952 34.1046 427.477 36.1685 427.503 37.9171C427.528 39.6598 428.045 41.0329 429.2 41.9081C432.356 44.2992 435.978 44.2805 438.517 42.7594C441.044 41.2459 442.547 38.2188 441.432 34.4369C439.69 28.5327 436.27 23.3988 434.5 20.8911Z" fill="#171717"/>
<path d="M416.996 65.7184C416.603 66.8585 415.338 67.6358 413.877 67.6358C411.783 67.6358 410.239 66.0086 410.239 63.8839C410.239 61.7903 411.783 60.1735 413.877 60.1735C415.276 60.1735 416.499 60.8886 416.914 61.925L416.022 62.3603C415.68 61.6245 414.851 61.1373 413.877 61.1373C412.333 61.1373 411.265 62.3189 411.265 63.8839C411.265 65.48 412.333 66.6719 413.877 66.6719C414.903 66.6719 415.773 66.1329 416.095 65.3038L416.996 65.7184ZM421.843 62.4743H422.807V67.5321H421.843V66.7963C421.563 67.273 420.858 67.6358 420.153 67.6358C418.754 67.6358 417.687 66.4853 417.687 65.0032C417.687 63.5211 418.754 62.3707 420.153 62.3707C420.868 62.3707 421.573 62.7334 421.843 63.2102V62.4743ZM420.34 66.7341C420.962 66.7341 421.573 66.3817 421.843 65.8946V64.1223C421.573 63.6248 420.962 63.2724 420.34 63.2724C419.366 63.2724 418.619 64.0083 418.619 65.0032C418.619 65.9878 419.366 66.7341 420.34 66.7341ZM426.421 62.3707C426.649 62.3707 426.835 62.4121 426.98 62.4536L426.928 63.3553C426.763 63.2931 426.545 63.262 426.358 63.262C425.944 63.262 425.395 63.5937 425.094 64.1637V67.5321H424.13V62.4743H425.094V63.2102C425.374 62.7024 425.934 62.3707 426.421 62.3707ZM431.357 60.2771H432.321V67.5321H431.357V66.7963C431.077 67.273 430.372 67.6358 429.667 67.6358C428.268 67.6358 427.201 66.4853 427.201 65.0032C427.201 63.5211 428.268 62.3707 429.667 62.3707C430.383 62.3707 431.087 62.7334 431.357 63.2102V60.2771ZM429.854 66.7341C430.476 66.7341 431.087 66.3817 431.357 65.8946V64.1223C431.087 63.6248 430.476 63.2724 429.854 63.2724C428.88 63.2724 428.134 64.0083 428.134 65.0032C428.134 65.9878 428.88 66.7341 429.854 66.7341ZM442.594 65.7184C442.2 66.8585 440.935 67.6358 439.474 67.6358C437.38 67.6358 435.836 66.0086 435.836 63.8839C435.836 61.7903 437.38 60.1735 439.474 60.1735C440.873 60.1735 442.096 60.8886 442.511 61.925L441.619 62.3603C441.277 61.6245 440.448 61.1373 439.474 61.1373C437.93 61.1373 436.862 62.3189 436.862 63.8839C436.862 65.48 437.93 66.6719 439.474 66.6719C440.5 66.6719 441.371 66.1329 441.692 65.3038L442.594 65.7184ZM445.895 62.3707C447.357 62.3707 448.507 63.5211 448.507 65.0136C448.507 66.4957 447.357 67.6358 445.895 67.6358C444.424 67.6358 443.284 66.4957 443.284 65.0136C443.284 63.5211 444.424 62.3707 445.895 62.3707ZM445.895 63.2828C444.942 63.2828 444.216 64.029 444.216 65.0136C444.216 65.9775 444.942 66.7237 445.895 66.7237C446.839 66.7237 447.575 65.9775 447.575 65.0136C447.575 64.029 446.839 63.2828 445.895 63.2828ZM450.529 60.2771V67.5321H449.565V60.2771H450.529ZM454.084 62.3707C455.545 62.3707 456.696 63.5211 456.696 65.0136C456.696 66.4957 455.545 67.6358 454.084 67.6358C452.612 67.6358 451.472 66.4957 451.472 65.0136C451.472 63.5211 452.612 62.3707 454.084 62.3707ZM454.084 63.2828C453.13 63.2828 452.405 64.029 452.405 65.0136C452.405 65.9775 453.13 66.7237 454.084 66.7237C455.027 66.7237 455.763 65.9775 455.763 65.0136C455.763 64.029 455.027 63.2828 454.084 63.2828ZM460.044 62.3707C460.272 62.3707 460.459 62.4121 460.604 62.4536L460.552 63.3553C460.386 63.2931 460.168 63.262 459.982 63.262C459.567 63.262 459.018 63.5937 458.717 64.1637V67.5321H457.754V62.4743H458.717V63.2102C458.997 62.7024 459.557 62.3707 460.044 62.3707Z" fill="#9D9D9D"/>
<g clip-path="url(#clip0_374_8061)">
<path d="M492.003 34.2755L506.253 33.9766C507.534 33.9498 508.194 35.4972 507.288 36.4028L499.189 44.5019C498.541 45.1495 497.491 45.1495 496.844 44.5019L490.459 38.117C489.057 36.7152 490.021 34.3171 492.003 34.2755Z" fill="url(#paint6_linear_374_8061)"/>
<path d="M512.596 39.9914C508.948 39.6019 510.282 34.9528 512.269 32.5972C512.648 32.1482 513.295 32.0257 513.724 32.4264C515.801 34.3642 517.051 40.4672 512.596 39.9914Z" fill="url(#paint7_linear_374_8061)"/>
<path fill-rule="evenodd" clip-rule="evenodd" d="M500.382 16.9143C500.188 16.8004 500.047 16.7365 499.954 16.7081L499.921 16.7412C499.941 16.7777 499.963 16.8182 499.988 16.8626C500.117 17.0951 500.313 17.4339 500.574 17.8549C501.096 18.6971 501.88 19.8664 502.926 21.1692C504.993 23.7437 508.07 26.823 512.148 28.9378L512.152 28.9333C512.12 28.8404 512.054 28.7024 511.942 28.5159C511.696 28.1047 511.285 27.5484 510.748 26.8911C509.677 25.5813 508.148 23.9224 506.554 22.3183C504.96 20.714 503.311 19.1752 502.005 18.103C501.349 17.5647 500.794 17.1559 500.382 16.9143ZM502.233 21.7254C504.147 24.1092 506.924 26.9391 510.567 29.0789C507.462 29.8521 505.154 29.9063 503.464 29.4975C501.66 29.0611 500.541 28.0936 499.878 26.8522C499.204 25.593 498.982 24.0179 499.054 22.3619C499.116 20.9581 499.388 19.5216 499.753 18.2176L499.818 18.323C500.356 19.1902 501.161 20.3899 502.233 21.7254ZM486.168 30.4948L498.984 17.6781C498.562 19.109 498.237 20.7273 498.167 22.323C498.09 24.067 498.318 25.8197 499.094 27.2711C499.88 28.7402 501.21 29.8661 503.256 30.361C505.228 30.8381 507.846 30.7248 511.271 29.8151L498.379 42.7064C498.168 42.9176 497.826 42.9187 497.607 42.6996L486.174 31.2668C485.955 31.0477 485.956 30.7059 486.168 30.4948ZM512.884 29.4577C513.012 29.3301 513.054 29.1731 513.061 29.0468C513.067 28.9254 513.043 28.8087 513.014 28.71C512.955 28.5124 512.842 28.2897 512.704 28.0594C512.424 27.5922 511.981 26.9964 511.435 26.3289C510.34 24.9892 508.79 23.3082 507.184 21.6921C505.578 20.0762 503.907 18.5146 502.569 17.4163C501.902 16.8693 501.304 16.4253 500.831 16.1479C500.598 16.0111 500.37 15.8998 500.165 15.8444C499.992 15.7978 499.661 15.7447 499.416 15.9897L485.539 29.8666C484.973 30.4326 484.988 31.337 485.546 31.895L496.979 43.3278C497.537 43.8858 498.441 43.9006 499.007 43.3346L512.884 29.4577ZM512.996 40.0396C514.198 40.19 515.093 39.8763 515.651 39.1875C516.186 38.5263 516.335 37.6098 516.275 36.7057C516.215 35.7913 515.938 34.8197 515.539 33.9737C515.143 33.1341 514.606 32.3733 513.993 31.9183C513.49 31.5446 512.849 31.7013 512.486 32.1017C511.469 33.2226 510.667 35.0124 510.547 36.5999C510.487 37.3967 510.595 38.191 510.985 38.8286C511.387 39.4855 512.057 39.9222 512.996 40.0396ZM513.464 32.6316C513.915 32.9668 514.373 33.5851 514.735 34.3525C515.094 35.1135 515.337 35.9769 515.389 36.7644C515.441 37.5623 515.296 38.2147 514.961 38.6284C514.648 39.0146 514.096 39.2818 513.106 39.1581C512.407 39.0707 511.99 38.7678 511.743 38.3646C511.484 37.9422 511.381 37.3561 511.433 36.6669C511.537 35.2825 512.256 33.6777 513.144 32.6986C513.26 32.5708 513.395 32.5801 513.464 32.6316Z" fill="#171717"/>
</g>
<path d="M472.971 67.5321V60.2771H475.551C476.733 60.2771 477.666 61.1166 477.666 62.1219C477.666 62.8682 477.168 63.5419 476.495 63.6973C477.365 63.8113 478.029 64.5783 478.029 65.5111C478.029 66.6512 477.065 67.5321 475.862 67.5321H472.971ZM473.966 63.3657H475.52C476.153 63.3657 476.66 62.8785 476.66 62.267C476.66 61.6866 476.153 61.2306 475.52 61.2306H473.966V63.3657ZM473.966 66.5786H475.8C476.505 66.5786 477.013 66.05 477.013 65.3764C477.013 64.713 476.484 64.1845 475.811 64.1845H473.966V66.5786ZM482.898 62.4743H483.862V67.5321H482.898V66.7963C482.618 67.273 481.914 67.6358 481.209 67.6358C479.81 67.6358 478.742 66.4853 478.742 65.0032C478.742 63.5211 479.81 62.3707 481.209 62.3707C481.924 62.3707 482.629 62.7334 482.898 63.2102V62.4743ZM481.395 66.7341C482.017 66.7341 482.629 66.3817 482.898 65.8946V64.1223C482.629 63.6248 482.017 63.2724 481.395 63.2724C480.421 63.2724 479.675 64.0083 479.675 65.0032C479.675 65.9878 480.421 66.7341 481.395 66.7341ZM489.839 66.2884C489.445 67.1072 488.575 67.6358 487.538 67.6358C486.056 67.6358 484.916 66.4957 484.916 65.0136C484.916 63.5211 486.056 62.3707 487.538 62.3707C488.513 62.3707 489.342 62.8578 489.694 63.604L488.875 64.0497C488.668 63.5833 488.15 63.2828 487.538 63.2828C486.574 63.2828 485.849 64.0394 485.849 65.0136C485.849 65.9775 486.574 66.7237 487.538 66.7237C488.191 66.7237 488.741 66.4232 489 65.9049L489.839 66.2884ZM495.201 67.5321H493.947L491.605 65.1172V67.5321H490.641V60.2771H491.605V64.6923L493.844 62.4743H495.036L492.558 64.8996L495.201 67.5321ZM499.467 62.4743H500.431V67.3559C500.431 68.7448 499.394 69.6568 497.964 69.6568C497.073 69.6568 496.14 69.3355 495.705 68.7966L496.192 68.1436C496.575 68.5582 497.228 68.7966 497.943 68.7966C498.814 68.7966 499.467 68.1955 499.467 67.3456V66.7237C499.187 67.1901 498.482 67.5425 497.778 67.5425C496.378 67.5425 495.311 66.4128 495.311 64.9514C495.311 63.5004 496.378 62.3707 497.778 62.3707C498.493 62.3707 499.197 62.7231 499.467 63.1998V62.4743ZM497.964 66.6512C498.586 66.6512 499.197 66.3091 499.467 65.8324V64.0912C499.197 63.604 498.586 63.262 497.964 63.262C496.99 63.262 496.244 63.9772 496.244 64.9514C496.244 65.9257 496.99 66.6512 497.964 66.6512ZM504.045 62.3707C504.273 62.3707 504.459 62.4121 504.605 62.4536L504.553 63.3553C504.387 63.2931 504.169 63.262 503.983 63.262C503.568 63.262 503.019 63.5937 502.718 64.1637V67.5321H501.754V62.4743H502.718V63.2102C502.998 62.7024 503.558 62.3707 504.045 62.3707ZM507.437 62.3707C508.898 62.3707 510.049 63.5211 510.049 65.0136C510.049 66.4957 508.898 67.6358 507.437 67.6358C505.965 67.6358 504.825 66.4957 504.825 65.0136C504.825 63.5211 505.965 62.3707 507.437 62.3707ZM507.437 63.2828C506.483 63.2828 505.758 64.029 505.758 65.0136C505.758 65.9775 506.483 66.7237 507.437 66.7237C508.38 66.7237 509.116 65.9775 509.116 65.0136C509.116 64.029 508.38 63.2828 507.437 63.2828ZM514.838 62.4743H515.791V67.5321H514.838V66.7963C514.527 67.3041 513.874 67.6358 513.179 67.6358C511.925 67.6358 511.107 66.7444 511.107 65.3764V62.4743H512.07V65.2313C512.07 66.1226 512.599 66.6926 513.397 66.6926C513.988 66.6926 514.558 66.3817 514.838 65.8842V62.4743ZM519.741 62.3707C521.005 62.3707 521.814 63.262 521.814 64.6405V67.5321H520.86V64.7752C520.86 63.8839 520.331 63.3138 519.523 63.3138C518.943 63.3138 518.373 63.6248 518.093 64.1223V67.5321H517.129V62.4743H518.093V63.2102C518.404 62.7024 519.057 62.3707 519.741 62.3707ZM527.038 60.2771H528.002V67.5321H527.038V66.7963C526.758 67.273 526.053 67.6358 525.348 67.6358C523.949 67.6358 522.882 66.4853 522.882 65.0032C522.882 63.5211 523.949 62.3707 525.348 62.3707C526.063 62.3707 526.768 62.7334 527.038 63.2102V60.2771ZM525.535 66.7341C526.157 66.7341 526.768 66.3817 527.038 65.8946V64.1223C526.768 63.6248 526.157 63.2724 525.535 63.2724C524.561 63.2724 523.814 64.0083 523.814 65.0032C523.814 65.9878 524.561 66.7341 525.535 66.7341Z" fill="#9D9D9D"/>
<rect x="556.02" y="17.2196" width="8.43954" height="8.43954" fill="url(#paint8_linear_374_8061)"/>
<path fill-rule="evenodd" clip-rule="evenodd" d="M569.817 24.9744C570.056 24.8182 570.123 24.4974 569.966 24.2591C569.809 24.0224 569.491 23.9565 569.254 24.1115L567.273 25.4051C567.034 25.5612 566.967 25.882 567.125 26.1204C567.281 26.357 567.599 26.4229 567.837 26.2679L569.817 24.9744ZM572.425 25.3812C572.583 25.621 572.515 25.944 572.273 26.099L567.02 29.4629C566.782 29.6148 566.467 29.548 566.312 29.3128C566.154 29.073 566.222 28.7501 566.464 28.5951L571.717 25.2312C571.954 25.0793 572.27 25.1461 572.425 25.3812ZM572.238 27.7807C572.396 28.0202 572.328 28.3427 572.087 28.4979L569.498 30.163C569.261 30.3157 568.945 30.2491 568.79 30.0136C568.631 29.7742 568.699 29.4517 568.941 29.2965L571.529 27.6313C571.766 27.4786 572.082 27.5453 572.238 27.7807Z" fill="#6D7ABB"/>
<rect x="556.02" y="27.4003" width="8.43954" height="14.6759" fill="url(#paint9_linear_374_8061)"/>
<rect x="569.129" y="35.8225" width="8.43954" height="8.43954" transform="rotate(18 569.129 35.8225)" fill="url(#paint10_linear_374_8061)"/>
<path fill-rule="evenodd" clip-rule="evenodd" d="M562.929 16.7754H553.602V26.1033H562.929V16.7754ZM554.49 25.215V17.6638H562.041V25.215H554.49ZM575.989 37.2921L567.118 34.4096L564.236 43.2809L573.107 46.1634L575.989 37.2921ZM565.355 42.7106L567.688 35.529L574.87 37.8624L572.537 45.044L565.355 42.7106ZM564.938 21.7148H574.265V32.5884H564.938V21.7148ZM565.826 22.6031V31.7001H573.377V22.6031H565.826ZM562.929 26.9562H553.602V42.5205H562.929V26.9562ZM554.49 41.6321V27.8446H562.041V41.6321H554.49Z" fill="#171717"/>
<path d="M554.759 65.7184C554.365 66.8585 553.101 67.6358 551.639 67.6358C549.546 67.6358 548.001 66.0086 548.001 63.8839C548.001 61.7903 549.546 60.1735 551.639 60.1735C553.039 60.1735 554.262 60.8886 554.676 61.925L553.785 62.3603C553.443 61.6245 552.614 61.1373 551.639 61.1373C550.095 61.1373 549.028 62.3189 549.028 63.8839C549.028 65.48 550.095 66.6719 551.639 66.6719C552.665 66.6719 553.536 66.1329 553.857 65.3038L554.759 65.7184ZM558.061 62.3707C559.522 62.3707 560.673 63.5211 560.673 65.0136C560.673 66.4957 559.522 67.6358 558.061 67.6358C556.589 67.6358 555.449 66.4957 555.449 65.0136C555.449 63.5211 556.589 62.3707 558.061 62.3707ZM558.061 63.2828C557.107 63.2828 556.382 64.029 556.382 65.0136C556.382 65.9775 557.107 66.7237 558.061 66.7237C559.004 66.7237 559.74 65.9775 559.74 65.0136C559.74 64.029 559.004 63.2828 558.061 63.2828ZM562.695 60.2771V67.5321H561.731V60.2771H562.695ZM564.982 60.2771V67.5321H564.018V60.2771H564.982ZM570.081 62.4743H571.045V67.5321H570.081V66.7963C569.801 67.273 569.096 67.6358 568.392 67.6358C566.992 67.6358 565.925 66.4853 565.925 65.0032C565.925 63.5211 566.992 62.3707 568.392 62.3707C569.107 62.3707 569.811 62.7334 570.081 63.2102V62.4743ZM568.578 66.7341C569.2 66.7341 569.811 66.3817 570.081 65.8946V64.1223C569.811 63.6248 569.2 63.2724 568.578 63.2724C567.604 63.2724 566.858 64.0083 566.858 65.0032C566.858 65.9878 567.604 66.7341 568.578 66.7341ZM576.255 62.4743H577.219V67.3559C577.219 68.7448 576.182 69.6568 574.752 69.6568C573.861 69.6568 572.928 69.3355 572.493 68.7966L572.98 68.1436C573.363 68.5582 574.016 68.7966 574.731 68.7966C575.602 68.7966 576.255 68.1955 576.255 67.3456V66.7237C575.975 67.1901 575.27 67.5425 574.566 67.5425C573.166 67.5425 572.099 66.4128 572.099 64.9514C572.099 63.5004 573.166 62.3707 574.566 62.3707C575.281 62.3707 575.986 62.7231 576.255 63.1998V62.4743ZM574.752 66.6512C575.374 66.6512 575.986 66.3091 576.255 65.8324V64.0912C575.986 63.604 575.374 63.262 574.752 63.262C573.778 63.262 573.032 63.9772 573.032 64.9514C573.032 65.9257 573.778 66.6512 574.752 66.6512ZM583.269 64.7856C583.269 64.8996 583.258 65.0551 583.248 65.1794H579.206C579.299 66.1537 579.962 66.7755 580.895 66.7755C581.538 66.7755 582.108 66.4853 582.367 66.0293L583.134 66.5268C582.75 67.2108 581.901 67.6358 580.864 67.6358C579.423 67.6358 578.273 66.4957 578.273 64.9825C578.273 63.5211 579.403 62.3707 580.854 62.3707C582.211 62.3707 583.269 63.4279 583.269 64.7856ZM579.247 64.4539H582.284C582.222 63.6973 581.61 63.1687 580.812 63.1687C580.014 63.1687 579.423 63.6766 579.247 64.4539Z" fill="#9D9D9D"/>
<defs>
<linearGradient id="paint0_linear_374_8061" x1="110.205" y1="19.4943" x2="110.205" y2="44.1822" gradientUnits="userSpaceOnUse">
<stop stop-color="#F49CC0"/>
<stop offset="1" stop-color="#F68D69"/>
</linearGradient>
<linearGradient id="paint1_linear_374_8061" x1="175.439" y1="19.209" x2="167.741" y2="43.0529" gradientUnits="userSpaceOnUse">
<stop stop-color="#F4EE70"/>
<stop offset="1" stop-color="#F5B3B2"/>
</linearGradient>
<linearGradient id="paint2_linear_374_8061" x1="255.703" y1="32.2156" x2="228.332" y2="32.2156" gradientUnits="userSpaceOnUse">
<stop stop-color="#030304"/>
<stop offset="1" stop-color="white"/>
</linearGradient>
<linearGradient id="paint3_linear_374_8061" x1="294.98" y1="40.637" x2="313.956" y2="40.637" gradientUnits="userSpaceOnUse">
<stop stop-color="#AAD695"/>
<stop offset="1" stop-color="#56B5E6"/>
</linearGradient>
<linearGradient id="paint4_linear_374_8061" x1="357.818" y1="31.7565" x2="366.54" y2="36.5148" gradientUnits="userSpaceOnUse">
<stop stop-color="#55B5E6"/>
<stop offset="1" stop-color="#6D7CBC"/>
</linearGradient>
<linearGradient id="paint5_linear_374_8061" x1="435.951" y1="19.4224" x2="435.951" y2="43.5691" gradientUnits="userSpaceOnUse">
<stop stop-color="#F49CC2"/>
<stop offset="1" stop-color="#A78BC1"/>
</linearGradient>
<linearGradient id="paint6_linear_374_8061" x1="508.306" y1="34.8322" x2="488.782" y2="36.4529" gradientUnits="userSpaceOnUse">
<stop stop-color="#57B4E5"/>
<stop offset="1" stop-color="#C48CBE"/>
</linearGradient>
<linearGradient id="paint7_linear_374_8061" x1="516.829" y1="36.515" x2="511.847" y2="37.2245" gradientUnits="userSpaceOnUse">
<stop stop-color="#57B4E5"/>
<stop offset="1" stop-color="#C48CBE"/>
</linearGradient>
<linearGradient id="paint8_linear_374_8061" x1="556.322" y1="21.4483" x2="564.459" y2="21.4483" gradientUnits="userSpaceOnUse">
<stop stop-color="#6D7ABB"/>
<stop offset="1" stop-color="#58B0E3"/>
</linearGradient>
<linearGradient id="paint9_linear_374_8061" x1="556.322" y1="34.7537" x2="564.459" y2="34.7537" gradientUnits="userSpaceOnUse">
<stop stop-color="#6D7ABB"/>
<stop offset="1" stop-color="#58B0E3"/>
</linearGradient>
<linearGradient id="paint10_linear_374_8061" x1="569.431" y1="40.0512" x2="577.568" y2="40.0512" gradientUnits="userSpaceOnUse">
<stop stop-color="#6D7ABB"/>
<stop offset="1" stop-color="#58B0E3"/>
</linearGradient>
<clipPath id="clip0_374_8061">
<rect width="35.5349" height="35.5349" fill="white" transform="translate(482.68 14.0748)"/>
</clipPath>
</defs>
</svg>
